<?xml version="1.0" encoding="UTF-8"?>
<svg version="1.1" xmlns="http://www.w3.org/2000/svg" width="2400" height="2400">
<path d="M0 0 C31.52074083 25.98704035 54.67344069 65.10745991 59.04785156 106.12890625 C61.93299215 136.73648462 52.32498772 166.7977834 33.3125 190.859375 C26.25705171 199.12151428 18.64922683 207.01402062 10 213.609375 C5.77470376 216.92090799 3.43017615 219.14071278 1.5625 224.234375 C0.83719362 232.60090362 2.11223656 240.31761095 4.0625 248.421875 C4.46408325 250.17189819 4.46408325 250.17189819 4.8737793 251.95727539 C6.31028887 258.15977086 7.83499434 264.33539051 9.42578125 270.5 C19.48755248 309.82054434 24.95463622 350.14379235 31.02929688 390.23266602 C32.94217976 402.84398222 34.86306858 415.44863426 37.11206055 428.00537109 C37.38812328 429.56071005 37.66312157 431.11623804 37.9375 432.671875 C38.1392131 433.81150696 38.34092621 434.95113892 38.54875183 436.12530518 C40.14624415 445.34233166 41.45199404 454.565053 42.52734375 463.859375 C42.61129206 464.57675779 42.69524036 465.29414059 42.78173256 466.03326225 C44.77106247 483.12789248 46.19989719 500.2638409 47.5602417 517.41809082 C47.81627056 520.62763369 48.07841663 523.83666484 48.34070873 527.04570103 C48.6606166 530.96386058 48.97688156 534.88231195 49.29296875 538.80078125 C49.37953767 539.86805041 49.37953767 539.86805041 49.46785545 540.95688057 C50.64608287 555.53938621 51.57167297 570.11989569 51.9921875 584.74609375 C52.06608641 587.0787862 52.14031747 589.41146814 52.21484375 591.74414062 C52.32558845 595.27766373 52.43429504 598.81119335 52.53662109 602.3449707 C52.90177366 614.8020168 53.38303916 627.22695748 54.29296875 639.65600586 C56.2792483 666.92153615 56.97625708 693.98053342 56.82678223 721.31561279 C56.8077125 725.463115 56.8036671 729.61057288 56.79993534 733.75811291 C56.76594905 768.26392208 56.257602 802.76483084 54.74682617 837.2401123 C53.69369545 861.50327334 53.08577422 885.77291628 52.5006485 910.0506897 C52.00580912 930.55921581 51.44578242 951.05314393 50.5 971.546875 C47.77874852 1031.35076007 45.77915096 1092.49165598 50.5625 1152.234375 C50.62848389 1153.06688782 50.69446777 1153.89940063 50.76245117 1154.75714111 C53.23268607 1185.4910044 56.9894706 1216.11042976 60.64143753 1246.72142029 C60.99416374 1249.68533365 61.344081 1252.64956657 61.69332886 1255.6138916 C65.96469842 1291.78060446 71.90540162 1327.31193724 79.51989746 1362.91845703 C80.16314502 1365.93761542 80.79744479 1368.95862701 81.43203735 1371.97961426 C86.89307731 1397.95096647 92.69382154 1423.71090867 101.1857605 1448.88891602 C102.9513806 1454.1245108 104.68322016 1459.37129942 106.41796875 1464.6171875 C106.76825638 1465.67403748 107.11854401 1466.73088745 107.47944641 1467.81976318 C110.68592044 1477.52847288 113.70554927 1487.29025909 116.68725586 1497.06991577 C122.29444807 1515.45225073 128.37116451 1533.54759025 135.3828125 1551.44921875 C146.24234226 1579.26585223 157.49875123 1613.00221684 144.8984375 1642.1796875 C137.57104678 1658.22693662 126.30959099 1671.64387558 109.5625 1678.234375 C98.51054719 1682.07636311 87.12490165 1684.53730065 75.70068359 1686.99926758 C69.78136842 1688.27732958 63.9165512 1689.63481704 58.07543945 1691.23168945 C-0.3475491 1707.00129613 -63.0165908 1696.2643625 -120.41796875 1681.59960938 C-157.91450373 1672.08627311 -200.09164862 1665.64713511 -238.4375 1674.234375 C-239.45247559 1674.46012207 -240.46745117 1674.68586914 -241.51318359 1674.91845703 C-253.27533513 1677.58362826 -264.95186078 1680.58002597 -276.62109375 1683.62109375 C-277.39683243 1683.8226709 -278.17257111 1684.02424805 -278.97181702 1684.23193359 C-282.75802644 1685.21609816 -286.54215789 1686.20693922 -290.32250977 1687.21337891 C-308.415115 1691.98550059 -326.16123777 1693.45029865 -344.8125 1693.421875 C-345.60807312 1693.42093842 -346.40364624 1693.42000183 -347.22332764 1693.41903687 C-371.31132174 1693.35773734 -393.81956352 1690.01286725 -417.36437988 1684.9671936 C-456.6055 1676.56229756 -495.59838849 1669.05703977 -535.4375 1678.234375 C-536.59604492 1678.4921875 -537.75458984 1678.75 -538.94824219 1679.015625 C-562.18260169 1684.22571755 -585.01699134 1690.83327502 -607.87097168 1697.48718262 C-662.78452774 1713.47414465 -710.12904943 1718.61856298 -765.95556641 1703.19482422 C-828.71308412 1685.88392289 -883.93166208 1698.13670387 -943.73828125 1719.46875 C-955.90780019 1723.76523246 -968.20614766 1727.05819591 -980.75 1730.046875 C-981.53848328 1730.23623627 -982.32696655 1730.42559753 -983.13934326 1730.62069702 C-1014.31184026 1738.05525254 -1046.13182967 1740.60249181 -1078.0625 1737.109375 C-1078.96887207 1737.01688477 -1079.87524414 1736.92439453 -1080.80908203 1736.82910156 C-1099.16056227 1734.51230339 -1117.13460866 1728.60904201 -1134.64569092 1722.85739136 C-1140.02563291 1721.09223452 -1145.41582522 1719.35878618 -1150.8046875 1717.62109375 C-1151.91828644 1717.26138992 -1153.03188538 1716.9016861 -1154.17922974 1716.53108215 C-1245.72758583 1687.0014895 -1315.36543491 1682.33366657 -1408.97265625 1706.41015625 C-1494.61853505 1728.4312148 -1560.88128544 1729.21972394 -1642.35830688 1692.92951965 C-1680.55946838 1675.93572845 -1717.54394985 1665.15689063 -1758.90380859 1658.71386719 C-1773.62992124 1656.41297979 -1788.17616558 1654.02972755 -1802.55566406 1650.03369141 C-1805.8288156 1649.1258383 -1809.11332758 1648.26588135 -1812.3984375 1647.40234375 C-1837.39390946 1640.69395085 -1860.1138104 1631.49916682 -1880.4375 1615.234375 C-1881.42878906 1614.45191406 -1882.42007812 1613.66945313 -1883.44140625 1612.86328125 C-1895.21107081 1602.53605277 -1905.00170778 1587.05419477 -1906.4375 1571.234375 C-1906.51871094 1570.41195313 -1906.59992188 1569.58953125 -1906.68359375 1568.7421875 C-1907.56236664 1550.79391692 -1899.23210083 1534.25042316 -1887.4375 1521.234375 C-1879.1817796 1512.25381408 -1870.82132928 1504.71450906 -1860.4375 1498.234375 C-1859.53257812 1497.63367187 -1858.62765625 1497.03296875 -1857.6953125 1496.4140625 C-1843.89028338 1487.69303844 -1827.94659995 1483.15413087 -1812.3125 1478.921875 C-1811.12350098 1478.59646729 -1809.93450195 1478.27105957 -1808.70947266 1477.93579102 C-1804.96611275 1476.95657447 -1801.21477654 1476.07321859 -1797.4375 1475.234375 C-1796.7996759 1475.08815704 -1796.16185181 1474.94193909 -1795.50469971 1474.79129028 C-1779.83322158 1471.3330483 -1763.7943933 1471.74023569 -1747.83544922 1471.78833008 C-1744.67111608 1471.79746667 -1741.50752456 1471.79070772 -1738.34326172 1471.76782227 C-1718.90296176 1471.62822945 -1700.25291801 1472.56396195 -1681.01171875 1475.67697144 C-1674.75216591 1476.65315597 -1668.46740379 1477.43241449 -1662.18359375 1478.234375 C-1659.63466388 1478.56692942 -1657.0858354 1478.90026185 -1654.53710938 1479.234375 C-1650.68783892 1479.73774681 -1646.8383569 1480.23908859 -1642.98803711 1480.734375 C-1634.46081828 1481.83306919 -1625.94479498 1482.99056943 -1617.4375 1484.234375 C-1615.94987152 1484.44598267 -1615.94987152 1484.44598267 -1614.43218994 1484.66186523 C-1602.27686759 1486.45490537 -1593.82902124 1489.34882824 -1583.9375 1496.734375 C-1582.21879087 1497.95758121 -1580.49178286 1499.16843329 -1578.76438904 1500.3793335 C-1577.61919828 1501.18358528 -1576.47670209 1501.9916888 -1575.33705139 1502.80377197 C-1570.17410444 1506.47491134 -1564.83428725 1509.77672926 -1559.375 1512.984375 C-1558.60929687 1513.43619141 -1557.84359375 1513.88800781 -1557.0546875 1514.35351562 C-1552.6697868 1516.93505632 -1552.6697868 1516.93505632 -1548.25830078 1519.47070312 C-1542.0060715 1523.09159376 -1536.16854756 1527.20356504 -1530.29257202 1531.39398193 C-1521.87347826 1537.38173152 -1513.26318288 1543.06917034 -1504.625 1548.734375 C-1503.37650269 1549.55426407 -1503.37650269 1549.55426407 -1502.1027832 1550.39071655 C-1490.05176335 1558.29757337 -1477.98937032 1566.13820532 -1465.4375 1573.234375 C-1464.60041504 1573.71052246 -1463.76333008 1574.18666992 -1462.90087891 1574.67724609 C-1442.08635595 1586.45292981 -1420.74690623 1596.57004642 -1398.44335938 1605.15893555 C-1391.01705432 1608.0216788 -1383.63548015 1610.95526256 -1376.3125 1614.07421875 C-1375.55393204 1614.39723969 -1374.79536407 1614.72026062 -1374.0138092 1615.05307007 C-1373.25523117 1615.37619171 -1372.49665314 1615.69931335 -1371.71508789 1616.03222656 C-1359.50718375 1621.23116553 -1347.32712363 1626.2271399 -1334.6875 1630.296875 C-1333.19416138 1630.77882324 -1333.19416138 1630.77882324 -1331.6706543 1631.27050781 C-1328.27545665 1632.31989772 -1324.86452884 1633.29564058 -1321.4375 1634.234375 C-1320.25121002 1634.5608049 -1320.25121002 1634.5608049 -1319.04095459 1634.89382935 C-1301.24711014 1639.72108707 -1283.23114362 1643.02708451 -1265.0625 1646.046875 C-1263.92712547 1646.23704319 -1263.92712547 1646.23704319 -1262.76881409 1646.43105316 C-1236.87101611 1650.76654808 -1210.91235448 1654.21679112 -1184.8111496 1657.07232285 C-1182.23726373 1657.35393038 -1179.66370718 1657.6384205 -1177.09014893 1657.92300415 C-1147.40626968 1661.18490141 -1117.67440205 1663.23965065 -1087.8125 1663.859375 C-1087.01653412 1663.87672699 -1086.22056824 1663.89407898 -1085.40048218 1663.91195679 C-1081.28941401 1664.00029063 -1077.17830616 1664.08034466 -1073.06689453 1664.15087891 C-1070.12737077 1664.20152752 -1067.18851762 1664.26258938 -1064.24951172 1664.33740234 C-1045.32266952 1664.80850471 -1026.62531833 1663.87067051 -1007.75 1662.421875 C-1006.66119537 1662.33910309 -1005.57239075 1662.25633118 -1004.45059204 1662.17105103 C-983.70448225 1660.56621173 -963.11209778 1658.34583906 -942.75 1653.984375 C-942.0389209 1653.83442078 -941.3278418 1653.68446655 -940.59521484 1653.52996826 C-894.77523192 1643.86172899 -853.49225792 1627.31048578 -811.4375 1607.234375 C-810.49197266 1606.78497559 -809.54644531 1606.33557617 -808.57226562 1605.87255859 C-768.93268541 1586.93217006 -732.17443708 1561.25089685 -698.4375 1533.234375 C-697.11914812 1532.1528426 -695.80008094 1531.0721818 -694.48046875 1529.9921875 C-682.17615145 1519.91396645 -670.00410382 1509.73215521 -658.3515625 1498.90234375 C-656.1245999 1496.86344904 -653.87493191 1494.87799924 -651.58984375 1492.90625 C-647.34394581 1489.20414433 -643.34555113 1485.29053312 -639.375 1481.296875 C-638.70662109 1480.63236328 -638.03824219 1479.96785156 -637.34960938 1479.28320312 C-633.43225441 1475.35823425 -629.70541718 1471.32351149 -626.08325195 1467.12524414 C-623.64595686 1464.32493996 -621.10171743 1461.62937699 -618.5625 1458.921875 C-614.13606961 1454.15828452 -609.90225327 1449.29369349 -605.83203125 1444.21875 C-604.05509315 1442.00409958 -602.26254198 1439.80945119 -600.44921875 1437.625 C-576.22887864 1408.34879718 -557.26225805 1376.1076808 -540.02441406 1342.32714844 C-537.74243981 1337.87975615 -535.40385672 1333.46319287 -533.0625 1329.046875 C-531.51593365 1326.11192793 -529.97455266 1323.17431503 -528.4375 1320.234375 C-528.09557617 1319.58065918 -527.75365234 1318.92694336 -527.40136719 1318.25341797 C-516.59322514 1297.46326742 -508.17632977 1275.69974093 -499.92472839 1253.80531311 C-498.1042296 1248.97988545 -496.25624779 1244.166 -494.38671875 1239.359375 C-485.05008877 1215.31171167 -476.36687327 1191.03321493 -467.74169922 1166.72265625 C-466.28292638 1162.61120319 -464.81911455 1158.50163599 -463.34814453 1154.39453125 C-449.86434388 1116.73397782 -438.37746385 1078.62876279 -427.79263306 1040.05828857 C-423.97195227 1026.1406819 -420.03638174 1012.2894047 -415.625 998.546875 C-395.43534131 935.63955645 -379.58524485 870.81924147 -370.5 805.359375 C-370.27503845 803.75394836 -370.27503845 803.75394836 -370.04553223 802.11608887 C-366.51752403 776.94781673 -366.51752403 776.94781673 -367.0625 751.609375 C-367.15241211 750.6817334 -367.24232422 749.7540918 -367.33496094 748.79833984 C-371.71074633 706.68310937 -382.80447453 668.35034655 -398.95704651 629.29171753 C-400.84746489 624.70658505 -402.68115214 620.1020478 -404.48046875 615.48046875 C-412.69186123 594.43160179 -422.13374553 574.14714451 -432.77441406 554.21411133 C-439.06383627 542.38020049 -444.8538172 530.2670001 -450.16796875 517.96484375 C-456.78098344 502.66403002 -464.13641627 487.97339237 -472.04754639 473.31230164 C-479.05935155 460.30870948 -485.59698089 447.19851765 -491.39569092 433.60791016 C-496.91899179 420.68692968 -502.81275772 408.02840205 -509.25292969 395.53466797 C-511.00433036 392.13365866 -512.72460262 388.7174047 -514.4375 385.296875 C-514.74429687 384.68553711 -515.05109375 384.07419922 -515.3671875 383.44433594 C-519.81273693 374.53957248 -524.05686466 365.53536541 -528.32763672 356.54589844 C-528.6938916 355.7830957 -529.06014648 355.02029297 -529.4375 354.234375 C-529.9332251 353.12993042 -529.9332251 353.12993042 -530.43896484 352.00317383 C-532.24013532 348.8125919 -535.61841841 348.47730137 -538.953125 347.48828125 C-544.05909551 346.19720013 -549.13210443 345.0908452 -554.33520508 344.26074219 C-575.23765699 340.89149317 -595.42738208 334.56510992 -611.4375 320.234375 C-612.21609375 319.574375 -612.9946875 318.914375 -613.796875 318.234375 C-618.8202885 313.91895938 -623.26461584 309.371619 -627.4375 304.234375 C-628.14777344 303.39648438 -628.85804687 302.55859375 -629.58984375 301.6953125 C-649.71697018 276.71703252 -656.87548428 239.21731934 -653.66381836 207.94921875 C-649.11671897 167.95749543 -633.08146745 131.72865435 -601.4765625 105.9296875 C-572.63163192 83.24298268 -539.10414138 72.95513978 -502.515625 76.671875 C-466.3741219 81.31288916 -434.7741935 102.28434626 -412.71875 130.703125 C-399.77811776 147.72534239 -391.38346879 166.11149286 -384.5625 186.296875 C-384.27624756 187.14064697 -383.98999512 187.98441895 -383.69506836 188.85375977 C-380.64228963 198.16808406 -379.02150935 207.45917086 -378.4375 217.234375 C-378.35628906 218.42353516 -378.35628906 218.42353516 -378.2734375 219.63671875 C-377.34163004 246.44736053 -387.3935389 270.10872591 -401.34375 292.3515625 C-403.92324146 296.79197279 -404.02790779 301.254717 -403.4375 306.234375 C-402.12548679 311.13146245 -400.39188706 315.86183829 -398.625 320.609375 C-398.12173517 321.98915769 -397.61897643 323.36912506 -397.11669922 324.74926758 C-389.55335962 345.39743639 -380.9964553 365.50021757 -371.625 385.390625 C-368.60265265 391.82764363 -365.7563503 398.33132142 -362.9375 404.859375 C-358.7517386 414.50644951 -354.18144159 423.90857194 -349.41845703 433.2824707 C-345.36409523 441.28998498 -341.54991256 449.38717208 -337.8125 457.546875 C-329.30282548 476.02799307 -319.89526847 493.53191824 -309.01318359 510.72070312 C-307.00773993 513.91996683 -305.06437364 517.15439762 -303.12182617 520.39208984 C-294.51328534 534.69829278 -284.70944358 547.56389791 -273.99316406 560.35400391 C-272.02591661 562.73186641 -270.14539452 565.17405734 -268.25 567.609375 C-255.44966649 583.22769238 -240.2784436 598.48401262 -222.1875 607.796875 C-221.56206299 608.12002686 -220.93662598 608.44317871 -220.29223633 608.77612305 C-200.3577475 618.3647657 -174.7805873 613.36673576 -154.75 606.546875 C-141.26389644 601.64528648 -129.01625657 594.97844408 -118.4375 585.234375 C-117.82003906 584.69683594 -117.20257812 584.15929687 -116.56640625 583.60546875 C-93.46931955 562.3220101 -88.08654301 531.89649182 -84.4375 502.234375 C-84.3329248 501.3985791 -84.22834961 500.5627832 -84.12060547 499.70166016 C-80.4144916 465.39152069 -84.0878012 430.28413404 -88.4375 396.234375 C-88.57281128 395.17341614 -88.70812256 394.11245728 -88.84753418 393.01934814 C-89.81374348 385.50160638 -90.82895557 377.99139933 -91.875 370.484375 C-92.07441696 369.0361586 -92.07441696 369.0361586 -92.27786255 367.5586853 C-96.0081839 340.77237483 -102.11654172 314.55381079 -108.87866211 288.39770508 C-109.82783139 284.72466621 -110.75992165 281.04751072 -111.68814182 277.36913013 C-112.4206444 274.47665806 -113.16367291 271.58696577 -113.9096508 268.69794273 C-114.25805939 267.34230064 -114.60294543 265.98574723 -114.9439106 264.62821388 C-118.26091584 251.2651732 -118.26091584 251.2651732 -125.62890625 239.84765625 C-129.69997607 237.5091975 -133.95929343 235.98854834 -138.375 234.421875 C-151.3589319 229.62436531 -162.94775245 224.49735547 -173.4375 215.234375 C-174.21867187 214.57308594 -174.99984375 213.91179687 -175.8046875 213.23046875 C-200.59896358 191.90071273 -212.34460575 160.80751105 -216.1875 128.921875 C-216.29405891 127.36078695 -216.37638495 125.79790167 -216.4375 124.234375 C-216.4890625 123.27789063 -216.540625 122.32140625 -216.59375 121.3359375 C-217.64054982 84.61071037 -205.14402219 43.78951264 -180.0546875 16.46484375 C-131.77154265 -34.17770964 -55.92941993 -45.33292669 0 0 Z " fill="#FFFFFF" transform="translate(2012.4375,425.765625)"/>
<path d="M0 0 C0 0.66 0 1.32 0 2 C1.53914062 2.11988281 1.53914062 2.11988281 3.109375 2.2421875 C9.68119877 3.07729698 15.93818788 5.18143196 22.25 7.125 C22.95440216 7.34008209 23.65880432 7.55516418 24.384552 7.77676392 C58.19567479 18.12261224 91.48885067 30.17184301 124.73602295 42.18347168 C126.83880639 42.94186374 128.94273145 43.69695041 131.04736328 44.45019531 C147.18479487 50.23057904 163.17407981 56.35088078 179.125 62.625 C180.01871307 62.97504089 180.91242615 63.32508179 181.83322144 63.68572998 C200.286322 70.92468452 218.42104812 78.82399567 236 88 C236.95148926 88.49628906 237.90297852 88.99257813 238.88330078 89.50390625 C253.97593138 97.41613893 268.67529492 105.7678684 283 115 C283.5887793 115.37817871 284.17755859 115.75635742 284.78417969 116.14599609 C298.65576952 125.10134388 311.98756283 134.84833733 325 145 C326.07683271 145.82070877 327.15497282 146.63970481 328.234375 147.45703125 C334.96260958 152.56006409 341.46989154 157.86276082 347.88671875 163.3515625 C350.70214402 165.75736114 353.56128421 168.10452263 356.4375 170.4375 C372.58275338 183.61539133 387.74360814 197.66590426 402.5 212.375 C403.43199219 213.30231934 404.36398437 214.22963867 405.32421875 215.18505859 C410.42447612 220.29727545 415.31751274 225.50429157 420 231 C421.08058406 232.23824358 422.1626068 233.4752332 423.24609375 234.7109375 C429.3289679 241.68462874 435.30689602 248.70192522 441 256 C442.04670861 257.32695418 443.09360047 258.65376382 444.140625 259.98046875 C466.65732103 288.60793712 485.82830972 318.89684095 503.49609375 350.71875 C505.72885979 354.73686608 507.98839927 358.73687617 510.28515625 362.71875 C528.40799485 394.1839934 542.68130253 426.50544049 554 461 C554.24063171 461.73156311 554.48126343 462.46312622 554.72918701 463.21685791 C584.23630908 553.04314845 606.43518577 638.54549918 573.45239258 730.57177734 C569.4952794 741.62218606 565.8142875 752.71584497 562.375 763.9375 C550.39451175 802.82791526 534.99898845 840.61166476 519 878 C518.51257324 879.14001465 518.02514648 880.2800293 517.52294922 881.45458984 C505.88920673 908.55506596 492.65689013 934.45283003 476.30712891 959.03417969 C475.03471787 960.94778702 473.77221523 962.86759224 472.51171875 964.7890625 C460.17525277 983.52722049 447.2396761 1001.9804477 432.58203125 1018.984375 C430.16746476 1021.80441332 427.82657202 1024.66978168 425.5 1027.5625 C421.01449017 1033.06962061 416.24284398 1038.28295792 411.40722656 1043.47949219 C410.00880547 1044.9904857 408.62351347 1046.51243714 407.2421875 1048.0390625 C399.28792759 1056.82115412 391.17465581 1065.43289566 382.1484375 1073.1328125 C379.96780107 1075.0279838 377.84587519 1076.97969074 375.72875977 1078.9453125 C369.68183367 1084.55449977 363.45922168 1089.86574687 357 1095 C356.21568604 1095.62575928 356.21568604 1095.62575928 355.41552734 1096.26416016 C351.90370179 1099.06262994 348.37169188 1101.83371574 344.82275391 1104.58496094 C343.64538015 1105.49897892 342.47039489 1106.41608574 341.29833984 1107.33691406 C331.83134961 1114.75868489 321.93479695 1121.50878285 311.9375 1128.1875 C310.99789429 1128.81699051 310.99789429 1128.81699051 310.03930664 1129.459198 C254.08229199 1166.88196197 191.539152 1185.23670453 125.3125 1194.3125 C124.24225586 1194.45985596 123.17201172 1194.60721191 122.06933594 1194.7590332 C100.45896733 1197.51440363 78.83085564 1198.3789741 57.0625 1198.3125 C55.80986359 1198.31067719 54.55722717 1198.30885437 53.26663208 1198.30697632 C-36.03873649 1198.09011456 -134.53880123 1185.51013523 -262 1137.25 C-263.81251755 1136.52416214 -263.81251755 1136.52416214 -265.66165161 1135.78366089 C-283.49167354 1128.64206251 -301.3017564 1121.46311477 -319 1114 C-319.79067871 1113.67080566 -320.58135742 1113.34161133 -321.39599609 1113.00244141 C-331.66852311 1108.72316772 -341.47523976 1103.75248879 -351.26708984 1098.47021484 C-354.22026971 1096.88150222 -357.18193592 1095.30936149 -360.14453125 1093.73828125 C-374.03763848 1086.34657002 -387.72081647 1078.65841377 -401.25244141 1070.62451172 C-403.77811826 1069.13118901 -406.31427196 1067.65810565 -408.85546875 1066.19140625 C-419.48241549 1060.00557158 -429.70214592 1053.27315494 -439.875 1046.375 C-440.84761276 1045.71562943 -440.84761276 1045.71562943 -441.83987427 1045.04293823 C-450.98986585 1038.8280495 -460.02323881 1032.46205814 -469 1026 C-470.32862061 1025.04963867 -470.32862061 1025.04963867 -471.68408203 1024.08007812 C-481.69133552 1016.90865106 -491.19583377 1009.62129038 -500 1001 C-500.86882812 1000.16984375 -501.73765625 999.3396875 -502.6328125 998.484375 C-507.66815793 993.58761706 -512.20869707 988.46265447 -516.58984375 982.9765625 C-519.30148044 979.62766921 -522.11303543 976.37849716 -524.9375 973.125 C-529.59362213 967.73185352 -534.01303753 962.21356068 -538.3125 956.53125 C-540.28477913 953.9254509 -542.29017424 951.34840325 -544.3125 948.78125 C-556.68402805 933.06495426 -568.095456 916.76495152 -579 900 C-579.64582031 899.02417969 -580.29164063 898.04835938 -580.95703125 897.04296875 C-614.83878124 842.84803843 -624.37966407 764.53044733 -632.3125 702 C-632.45993652 700.84064941 -632.60737305 699.68129883 -632.75927734 698.48681641 C-633.21619423 694.66167748 -633.62360152 690.83372081 -634 687 C-634.08613556 686.13072876 -634.17227112 685.26145752 -634.26101685 684.36584473 C-635.887489 667.48071076 -636.36035429 650.70712517 -636.3125 633.75 C-636.31126129 631.88393097 -636.31126129 631.88393097 -636.30999756 629.98016357 C-636.22048232 571.33072348 -636.22048232 571.33072348 -628 559 C-625.8125 557.625 -625.8125 557.625 -624 557 C-620.57379165 560.09488271 -618.57641777 563.23331126 -616.4375 567.3125 C-616.10016846 567.95421143 -615.76283691 568.59592285 -615.4152832 569.25708008 C-612.35122921 575.16018342 -609.52686337 581.17414115 -606.6875 587.1875 C-596.39434978 608.90327656 -584.50398129 629.99188681 -570.05078125 649.2421875 C-567.31391958 652.92261481 -564.69483354 656.68193383 -562.0625 660.4375 C-557.16784512 667.39286172 -552.18201754 674.25444269 -547 681 C-546.37641602 681.81283447 -546.37641602 681.81283447 -545.74023438 682.64208984 C-536.7243921 694.35934561 -527.1862537 705.59393307 -517.23046875 716.5234375 C-515.99471148 717.89553926 -514.76579582 719.27425545 -513.56665039 720.6784668 C-508.79822666 726.24245358 -503.70229459 731.45090658 -498.51196289 736.6184082 C-497.06475615 738.06025221 -495.62297974 739.50737116 -494.18164062 740.95507812 C-488.95859734 746.18214925 -483.63944577 751.22397172 -478 756 C-477.09636719 756.78503906 -476.19273437 757.57007813 -475.26171875 758.37890625 C-456.38137185 774.39425362 -436.18363663 787.40006672 -413.87353516 798.10009766 C-412.0706158 798.96608159 -410.27535934 799.84796428 -408.48046875 800.73046875 C-338.86999762 834.26936168 -253.86306531 847.51352654 -177 849 C-175.92927246 849.02191406 -174.85854492 849.04382812 -173.75537109 849.06640625 C-116.45292035 850.06311506 -63.09811952 837.98774579 -10 817 C-9.01273926 816.61054199 -8.02547852 816.22108398 -7.00830078 815.81982422 C29.33340085 801.31795255 61.67400969 781.93268146 91.31005859 756.44726562 C93.07012729 754.93994299 94.84061103 753.44560049 96.61328125 751.953125 C102.56456734 746.92587744 108.35701479 741.87476065 113.7421875 736.23046875 C115.63148622 734.36405081 117.55217186 732.64810539 119.56640625 730.921875 C124.46536961 726.66993382 129.04409536 722.10648511 133.6184082 717.51196289 C135.06025221 716.06475615 136.50737116 714.62297974 137.95507812 713.18164062 C142.6409958 708.49908326 147.20635307 703.75894414 151.51782227 698.72729492 C153.59734618 696.30386687 155.76976165 693.96947575 157.9375 691.625 C162.52626832 686.57529094 166.85813219 681.42169793 171 676 C171.4842041 675.36658691 171.9684082 674.73317383 172.46728516 674.08056641 C187.47908734 654.33870741 200.64739052 633.48856629 213 612 C213.44150391 611.23945312 213.88300781 610.47890625 214.33789062 609.6953125 C225.32247002 590.72961782 235.33346661 570.92120105 242 550 C242.25974609 549.1862793 242.51949219 548.37255859 242.78710938 547.53417969 C249.97883124 524.42300435 253.53718616 500.12328937 255 476 C255.05639648 475.07123047 255.11279297 474.14246094 255.17089844 473.18554688 C257.74807939 428.07725548 257.43987623 379.31962869 243 336 C242.00269904 334.99730822 241.00251571 333.99747794 240 333 C237.16900893 328.05133844 235.46229776 322.51204193 233.6875 317.12109375 C233.24382304 315.78135622 232.7999703 314.44167689 232.35595703 313.10205078 C231.90392449 311.73471601 231.45193819 310.36736596 231 309 C225.06566799 291.05002713 218.9072442 274.1966421 209 258 C207.96172104 256.26886855 206.92352837 254.53768447 205.88711548 252.80543518 C193.20736294 231.49590245 193.20736294 231.49590245 179.28515625 210.99609375 C178 209 178 209 178 207 C177.01 206.67 176.02 206.34 175 206 C171 201.54285714 171 201.54285714 171 199 C170.34 199 169.68 199 169 199 C168.34 197.35 167.68 195.7 167 194 C166.34 194 165.68 194 165 194 C161 189.52941176 161 189.52941176 161 187 C160.01 186.67 159.02 186.34 158 186 C157.66666667 184.66666667 157.33333333 183.33333333 157 182 C156.01 181.67 155.02 181.34 154 181 C154 180.34 154 179.68 154 179 C153.34 179 152.68 179 152 179 C150.67221777 177.46411063 149.41164059 175.86970418 148.1875 174.25 C145.40957598 170.57475816 142.66601889 167.78807262 139 165 C136.1875 162.375 136.1875 162.375 134 160 C134 159.34 134 158.68 134 158 C131.525 157.01 131.525 157.01 129 156 C129 155.34 129 154.68 129 154 C126.525 153.01 126.525 153.01 124 152 C124 151.34 124 150.68 124 150 C121.525 149.01 121.525 149.01 119 148 C119 147.34 119 146.68 119 146 C118.1028125 145.8453125 118.1028125 145.8453125 117.1875 145.6875 C114.69130983 144.90298309 113.74268135 143.90110692 112 142 C111.34 141.67 110.68 141.34 110 141 C110 140.34 110 139.68 110 139 C107.525 138.01 107.525 138.01 105 137 C105 136.34 105 135.68 105 135 C102.525 134.01 102.525 134.01 100 133 C100 132.34 100 131.68 100 131 C97.525 130.01 97.525 130.01 95 129 C95 128.34 95 127.68 95 127 C94.28972656 126.7525 93.57945312 126.505 92.84765625 126.25 C89.66399726 124.85250908 87.20778702 123.09601688 84.4375 121 C81.37662457 118.69054614 78.5010033 116.58162973 75 115 C75 114.34 75 113.68 75 113 C74.31615234 112.75483643 73.63230469 112.50967285 72.92773438 112.25708008 C69.46576054 110.77061383 66.34835148 108.86722215 63.15625 106.88671875 C55.43903119 102.18382338 47.54158603 97.93054936 39.5 93.8125 C38.45215836 93.27331436 38.45215836 93.27331436 37.38314819 92.72323608 C17.65919003 82.59376965 -2.58767947 73.64763658 -23 65 C-23.90661377 64.6088501 -24.81322754 64.2177002 -25.74731445 63.81469727 C-91.94027163 35.94825633 -169.88380483 39.57104857 -237 60 C-237.71800781 60.21720703 -238.43601562 60.43441406 -239.17578125 60.65820312 C-273.99152386 71.33640426 -307.90309981 88.23098374 -338.36010742 108.08642578 C-340 109 -340 109 -342 109 C-342 109.66 -342 110.32 -342 111 C-346.38461538 114 -346.38461538 114 -349 114 C-349 114.66 -349 115.32 -349 116 C-353.38461538 119 -353.38461538 119 -356 119 C-356 119.66 -356 120.32 -356 121 C-358.85254222 123.12282212 -361.48002666 124.80356563 -364.8125 126.0625 C-365.534375 126.371875 -366.25625 126.68125 -367 127 C-367.33 127.99 -367.66 128.98 -368 130 C-369.33333333 130.33333333 -370.66666667 130.66666667 -372 131 C-372.33 131.99 -372.66 132.98 -373 134 C-374.33333333 134.33333333 -375.66666667 134.66666667 -377 135 C-377.33 135.99 -377.66 136.98 -378 138 C-378.66 138 -379.32 138 -380 138 C-380 138.66 -380 139.32 -380 140 C-382.475 140.99 -382.475 140.99 -385 142 C-385 142.66 -385 143.32 -385 144 C-389.47058824 148 -389.47058824 148 -392 148 C-392.33 148.99 -392.66 149.98 -393 151 C-393.66 151 -394.32 151 -395 151 C-395 151.66 -395 152.32 -395 153 C-395.804375 153.268125 -396.60875 153.53625 -397.4375 153.8125 C-398.283125 154.204375 -399.12875 154.59625 -400 155 C-400.33 155.99 -400.66 156.98 -401 158 C-401.66 158 -402.32 158 -403 158 C-403 158.66 -403 159.32 -403 160 C-404.609375 161.5859375 -404.609375 161.5859375 -406.75 163.375 C-409.06903702 165.33757727 -411.25219284 167.2588295 -413.375 169.4375 C-415 171 -415 171 -417 171 C-417.33 171.99 -417.66 172.98 -418 174 C-418.66 174 -419.32 174 -420 174 C-420.3403125 174.804375 -420.3403125 174.804375 -420.6875 175.625 C-423.27698284 180.31073086 -427.02088618 184.43251864 -431 188 C-431.66 188 -432.32 188 -433 188 C-433.33 188.99 -433.66 189.98 -434 191 C-434.66 191 -435.32 191 -436 191 C-436.2475 191.7425 -436.495 192.485 -436.75 193.25 C-438.11899045 196.26177898 -439.60699074 197.74775599 -442 200 C-444.15845936 202.60284805 -446.12342269 205.18513404 -448 208 C-448.66 208 -449.32 208 -450 208 C-450.24621094 208.82113281 -450.49242187 209.64226562 -450.74609375 210.48828125 C-451.92873762 213.80042094 -453.3361668 216.78210991 -454.91918945 219.91064453 C-463.86442057 237.72470078 -470.46419468 257.35811404 -474 277 C-474.14663086 277.78004395 -474.29326172 278.56008789 -474.44433594 279.36376953 C-483.65499531 330.37893771 -474.40374519 383.11400997 -445 426 C-416.10724447 467.03169283 -373.10178461 499.94132054 -325 515 C-324.2467041 515.23654297 -323.4934082 515.47308594 -322.71728516 515.71679688 C-311.97642726 519.02167623 -301.1257162 521.41998428 -290 523 C-289.02788574 523.14356934 -289.02788574 523.14356934 -288.03613281 523.29003906 C-251.49617297 528.06058132 -213.70520626 521.09859001 -180 507 C-178.89640137 506.54923096 -178.89640137 506.54923096 -177.77050781 506.08935547 C-134.44838332 488.36666818 -96.54612719 455.14397329 -78.25 411.625 C-59.77089684 365.59591547 -56.67110096 311.64846982 -76.08691406 265.41162109 C-83.89640201 247.52926149 -93.40020051 232.93150192 -107 219 C-107.57878906 218.34773438 -108.15757812 217.69546875 -108.75390625 217.0234375 C-129.09219244 194.61415089 -164.83714181 182.40611996 -194.19775391 180.88623047 C-224.38814759 179.83423121 -258.46665315 186.92914823 -281.5625 207.6875 C-283.04294712 209.12368126 -284.52227559 210.56101743 -286 212 C-287.13964964 212.90368694 -288.28506318 213.80017775 -289.4375 214.6875 C-299.80675089 223.59285664 -306.84326084 235.99664375 -313 248 C-313.49242187 248.95519531 -313.98484375 249.91039062 -314.4921875 250.89453125 C-325.31293997 273.30894708 -329.19169208 300.21412433 -321.28369141 324.16992188 C-317.96369778 333.4390017 -313.82354119 342.02161219 -308 350 C-307.54238281 350.64066406 -307.08476563 351.28132813 -306.61328125 351.94140625 C-297.19519342 364.00411474 -278.06598388 374.74686591 -263.1484375 377.671875 C-250.80220166 378.95857948 -235.21641768 380.03361479 -225 372 C-224.34 372 -223.68 372 -223 372 C-222.67 371.01 -222.34 370.02 -222 369 C-220.33333333 367.33333333 -218.66666667 365.66666667 -217 364 C-216.443125 363.071875 -215.88625 362.14375 -215.3125 361.1875 C-214.879375 360.465625 -214.44625 359.74375 -214 359 C-213.34 359 -212.68 359 -212 359 C-208.90167775 350.0557867 -206.615699 341.76769378 -208.5625 332.25 C-213.52311336 324.48556169 -222.3894679 320.99509821 -230.27929688 316.90332031 C-235.87760374 313.96436807 -240.39928183 311.33439729 -244 306 C-244.52078125 305.25363281 -245.0415625 304.50726562 -245.578125 303.73828125 C-248.15460379 298.77643612 -247.62181216 293.44576545 -247 288 C-245.95740442 284.96699469 -244.71776107 282.73768171 -243 280 C-242.34 280 -241.68 280 -241 280 C-240.938125 279.4225 -240.87625 278.845 -240.8125 278.25 C-239.66615826 275.07551517 -237.74043158 273.87151425 -235 272 C-234.34 272 -233.68 272 -233 272 C-232.67 271.01 -232.34 270.02 -232 269 C-228.9375 267.8125 -228.9375 267.8125 -226 267 C-226 266.34 -226 265.68 -226 265 C-219.81709117 260.64385969 -214.45032107 260.22994818 -207 260 C-205.55753906 259.90525391 -205.55753906 259.90525391 -204.0859375 259.80859375 C-189.12223042 259.1834254 -175.30478603 264.53662877 -163.875 274 C-149.94638386 287.2200061 -143.22043996 305.80923846 -142.69921875 324.78515625 C-142.6796953 327.21086208 -142.67628966 329.63674151 -142.6875 332.0625 C-142.69313965 333.34020264 -142.6987793 334.61790527 -142.70458984 335.93432617 C-143.07628286 365.04598543 -152.45053522 388.26921642 -173 409 C-173.7734375 409.82242187 -174.546875 410.64484375 -175.34375 411.4921875 C-197.00523097 434.14521514 -230.1822556 445.10664151 -261 446 C-299.88492769 446.56057459 -334.95292122 428.67371556 -362.79443359 402.30371094 C-385.97799487 379.56683429 -398.73891494 350.51640135 -399.25 318.0625 C-398.89747756 278.48823423 -382.07566479 244.28277734 -359 213 C-358.52594727 212.34805664 -358.05189453 211.69611328 -357.56347656 211.02441406 C-343.31404032 191.52902028 -325.65848784 176.63428087 -305.07592773 164.25268555 C-303.59287999 163.35776399 -302.11652684 162.45170998 -300.64477539 161.53833008 C-294.86633639 157.9864974 -289.00318151 154.95287192 -282.8125 152.1875 C-281.85964111 151.76009521 -280.90678223 151.33269043 -279.92504883 150.89233398 C-234.57328099 130.77108672 -185.0448025 113.78645141 -135.0625 113.75 C-134.22641205 113.74932526 -133.3903241 113.74865051 -132.52890015 113.74795532 C-80.66619421 113.81397216 -29.44425586 125.35492729 13.29248047 155.78662109 C15.03885569 157.02761121 16.80081179 158.24357584 18.56640625 159.45703125 C26.14386155 164.71069215 33.19996672 170.38967766 40.15429688 176.44140625 C41.53105224 177.60399967 42.93242654 178.73755638 44.34570312 179.85546875 C51.82137105 185.79218965 58.57738365 192.26970489 65.29833984 199.03759766 C67.12248747 200.87247269 68.95709873 202.69639332 70.79296875 204.51953125 C77.65593074 211.37485132 83.98456678 218.38153511 90 226 C91.55950185 227.8150803 93.12133812 229.62816326 94.6875 231.4375 C136.39521436 281.65436165 161.8385099 347.79493397 171 412 C171.1038501 412.67893311 171.2077002 413.35786621 171.31469727 414.05737305 C177.68449206 461.42089673 167.08209031 515.39489614 145.26318359 557.54736328 C143.84352732 560.30381223 142.44757144 563.07174082 141.05078125 565.83984375 C128.44758714 590.64990511 113.89698207 614.60721676 96 636 C95.32066406 636.83917969 94.64132812 637.67835938 93.94140625 638.54296875 C85.14167244 649.41322816 76.03479261 659.99419168 66.52734375 670.25 C64.24345374 672.73509825 62.0226355 675.26201225 59.8125 677.8125 C56.8589767 681.14635628 53.76600036 684.07777834 50.36328125 686.9453125 C48.5184619 688.54923808 46.74469832 690.17785705 44.98046875 691.8671875 C-3.58055478 738.28967876 -81.75044442 769.92655242 -149.1015625 770.203125 C-150.2435762 770.21018463 -151.3855899 770.21724426 -152.56221008 770.22451782 C-199.7204643 770.44948528 -199.7204643 770.44948528 -222.92669678 767.28186035 C-225.18798798 766.97444351 -227.45057044 766.67787022 -229.71337891 766.38183594 C-295.87161786 757.65293819 -368.40394204 745.27440823 -421 701 C-421.97324219 700.21109375 -422.94648438 699.4221875 -423.94921875 698.609375 C-431.81509692 692.14539547 -439.09945136 685.11386185 -446.3125 677.9375 C-447.2312793 677.02790527 -448.15005859 676.11831055 -449.09667969 675.18115234 C-454.39350589 669.86041487 -459.30441808 664.37810188 -463.97363281 658.49780273 C-466.04106301 655.94938366 -468.20923276 653.53326655 -470.4375 651.125 C-475.14181889 645.94213833 -479.40782619 640.47005364 -483.59716797 634.86962891 C-485.04503943 632.93997355 -486.50875649 631.02298451 -487.97265625 629.10546875 C-531.20631954 571.94608434 -556.65903576 513.68676673 -565 442 C-565.10530029 441.1128833 -565.21060059 440.2257666 -565.3190918 439.31176758 C-566.4284223 428.31949261 -566.28672736 417.2239956 -566.3125 406.1875 C-566.31692612 404.5241713 -566.31692612 404.5241713 -566.32144165 402.82723999 C-566.33405879 381.95077095 -564.71984056 362.08764082 -560.48046875 341.61328125 C-558.94514666 334.06950257 -558.00710973 326.51801331 -557.125 318.875 C-553.66831409 290.64094882 -545.13487712 264.70166975 -533 239 C-532.50951172 237.9495752 -532.01902344 236.89915039 -531.51367188 235.81689453 C-525.5824336 223.13896195 -519.69033285 210.71351623 -512 199 C-511.01630288 197.27340662 -510.03697648 195.54431417 -509.0625 193.8125 C-505.72879753 188.23530587 -501.43471747 183.71418556 -497 179 C-495.49694103 177.31522406 -493.99691665 175.62773572 -492.5 173.9375 C-487.06043585 167.90194882 -481.45967301 162.10252556 -475.29638672 156.80297852 C-471.29793383 153.31130441 -467.54094652 149.6388581 -463.82421875 145.8515625 C-462.48777041 144.50246527 -461.15117732 143.15351141 -459.81445312 141.8046875 C-457.75260228 139.71813651 -455.69241618 137.62999629 -453.63500977 135.5390625 C-445.7491643 127.53331971 -437.90227116 119.8830926 -429 113 C-427.8186174 112.0476719 -426.63869462 111.09352689 -425.4609375 110.13671875 C-417.94875509 104.17451828 -410.24825275 98.56415581 -402.3828125 93.078125 C-398.8081861 90.58110842 -395.28313569 88.02340664 -391.76782227 85.44384766 C-374.50731901 72.8067286 -356.64720345 60.50559756 -338 50 C-337.23574707 49.5659082 -336.47149414 49.13181641 -335.68408203 48.68457031 C-311.98133212 35.28556949 -287.71045664 23.94693309 -262.08166504 14.74987793 C-259.86954847 13.95300746 -257.66063234 13.14770148 -255.45214844 12.34082031 C-185.11455844 -13.32326843 -71.62839021 -32.34830526 0 0 Z " fill="#FFFFFF" transform="translate(897,818)"/>
<path d="M0 0 C5.72978297 1.7010487 11.45251306 3.38582425 17.25195312 4.83618164 C31.9559824 8.51515056 45.50109079 14.09226905 59.30664062 20.31274414 C60.30953125 20.76311035 61.31242187 21.21347656 62.34570312 21.67749023 C68.28716905 24.35526503 74.20545627 27.08082445 80.11425781 29.82983398 C82.95205678 31.14803458 85.79276085 32.45973716 88.63500977 33.76831055 C112.4374027 44.72773126 112.4374027 44.72773126 124.09960938 50.67993164 C126.96408534 52.13833719 129.84940288 53.54089042 132.74414062 54.93774414 C136.89235295 57.00132184 140.68839761 59.44153291 144.49414062 62.07836914 C146.28777053 63.35907297 146.28777053 63.35907297 148.30664062 64.31274414 C148.30664062 64.97274414 148.30664062 65.63274414 148.30664062 66.31274414 C149.95664063 66.97274414 151.60664062 67.63274414 153.30664062 68.31274414 C153.30664062 68.97274414 153.30664062 69.63274414 153.30664062 70.31274414 C154.95664063 70.97274414 156.60664062 71.63274414 158.30664062 72.31274414 C158.30664062 72.97274414 158.30664062 73.63274414 158.30664062 74.31274414 C159.95664063 74.97274414 161.60664062 75.63274414 163.30664062 76.31274414 C163.30664062 76.97274414 163.30664062 77.63274414 163.30664062 78.31274414 C164.00789063 78.56024414 164.70914062 78.80774414 165.43164062 79.06274414 C170.02960702 81.06185996 173.85505767 83.68858204 177.30664062 87.31274414 C177.96664063 87.64274414 178.62664062 87.97274414 179.30664062 88.31274414 C179.30664062 88.97274414 179.30664062 89.63274414 179.30664062 90.31274414 C180.95664063 90.97274414 182.60664062 91.63274414 184.30664062 92.31274414 C184.30664062 92.97274414 184.30664062 93.63274414 184.30664062 94.31274414 C185.95664063 94.97274414 187.60664062 95.63274414 189.30664062 96.31274414 C189.30664062 96.97274414 189.30664062 97.63274414 189.30664062 98.31274414 C189.87125 98.55895508 190.43585938 98.80516602 191.01757812 99.05883789 C193.69743335 100.52681319 195.68622866 102.30631104 197.93164062 104.37524414 C200.8945323 107.17054872 200.8945323 107.17054872 204.30664062 109.31274414 C204.30664062 109.97274414 204.30664062 110.63274414 204.30664062 111.31274414 C205.29664063 111.64274414 206.28664063 111.97274414 207.30664062 112.31274414 C207.30664062 112.97274414 207.30664062 113.63274414 207.30664062 114.31274414 C207.88414062 114.39524414 208.46164062 114.47774414 209.05664062 114.56274414 C211.96057423 115.53072201 213.34404667 116.99968698 215.30664062 119.31274414 C215.30664062 119.97274414 215.30664062 120.63274414 215.30664062 121.31274414 C215.90476562 121.60149414 216.50289062 121.89024414 217.11914062 122.18774414 C219.30664062 123.31274414 219.30664062 123.31274414 222.30664062 125.31274414 C222.30664062 125.97274414 222.30664062 126.63274414 222.30664062 127.31274414 C223.29664063 127.64274414 224.28664063 127.97274414 225.30664062 128.31274414 C225.30664062 128.97274414 225.30664062 129.63274414 225.30664062 130.31274414 C226.29664063 130.64274414 227.28664063 130.97274414 228.30664062 131.31274414 C228.30664062 131.97274414 228.30664062 132.63274414 228.30664062 133.31274414 C228.96664063 133.31274414 229.62664062 133.31274414 230.30664062 133.31274414 C231.67737848 134.9487861 233.00719319 136.61952475 234.30664062 138.31274414 C235.17289063 139.14805664 235.17289063 139.14805664 236.05664062 140.00024414 C237.30664062 141.31274414 237.30664062 141.31274414 237.30664062 143.31274414 C238.17289063 143.68399414 238.17289063 143.68399414 239.05664062 144.06274414 C241.63604042 145.49574403 243.36785654 147.09699091 245.30664062 149.31274414 C245.30664062 149.97274414 245.30664062 150.63274414 245.30664062 151.31274414 C246.17289063 151.68399414 246.17289063 151.68399414 247.05664062 152.06274414 C249.63604042 153.49574403 251.36785654 155.09699091 253.30664062 157.31274414 C253.30664062 157.97274414 253.30664062 158.63274414 253.30664062 159.31274414 C254.29664063 159.64274414 255.28664063 159.97274414 256.30664062 160.31274414 C256.30664062 160.97274414 256.30664062 161.63274414 256.30664062 162.31274414 C256.96664063 162.31274414 257.62664062 162.31274414 258.30664062 162.31274414 C259.78710938 163.78149414 259.78710938 163.78149414 261.49414062 165.81274414 C264.60586724 169.48667346 267.78816818 173.08137454 271.02148438 176.64868164 C272.30664062 178.31274414 272.30664062 178.31274414 272.30664062 180.31274414 C272.96664063 180.31274414 273.62664062 180.31274414 274.30664062 180.31274414 C275.93804 182.23861993 277.44387288 184.15601131 278.93164062 186.18774414 C279.351875 186.74333008 279.77210938 187.29891602 280.20507812 187.87133789 C283.30664062 192.05039126 283.30664062 192.05039126 283.30664062 194.31274414 C284.29664063 194.64274414 285.28664063 194.97274414 286.30664062 195.31274414 C286.99414062 197.37524414 286.99414062 197.37524414 287.30664062 199.31274414 C287.96664063 199.31274414 288.62664062 199.31274414 289.30664062 199.31274414 C291.03320312 201.42993164 291.03320312 201.42993164 292.93164062 204.18774414 C293.56328125 205.09266602 294.19492188 205.99758789 294.84570312 206.92993164 C296.30664062 209.31274414 296.30664062 209.31274414 296.30664062 211.31274414 C296.96664063 211.31274414 297.62664062 211.31274414 298.30664062 211.31274414 C299.41286546 213.06129307 300.50796137 214.81728009 301.56835938 216.59399414 C303.31255225 219.32199019 305.18693184 221.88860656 307.13012695 224.47583008 C312.55844406 231.70367658 317.41268648 239.0825402 321.92529297 246.91674805 C323.58038378 249.78756127 325.25062478 252.64938761 326.91992188 255.51196289 C330.74915242 262.09315419 334.53408312 268.69894834 338.30664062 275.31274414 C338.74991699 276.08215332 339.19319336 276.8515625 339.64990234 277.64428711 C374.11225748 337.67972407 364.80899229 406.76712038 348.55664062 470.62524414 C348.28754883 471.69057373 348.01845703 472.75590332 347.74121094 473.85351562 C345.81768135 481.14601141 343.51170167 488.00515257 339.30664062 494.31274414 C336.99414062 495.00024414 336.99414062 495.00024414 334.30664062 494.31274414 C330.58388621 489.73089255 328.59696236 484.72653109 326.56054688 479.23071289 C326.17275558 478.19022041 326.17275558 478.19022041 325.77713013 477.12870789 C323.17312681 470.07019532 320.79252269 462.93971621 318.4128418 455.80322266 C305.9075646 418.31599396 290.19555529 382.96072353 270.40820312 348.73461914 C267.1200933 343.03688631 264.02877933 337.24076941 260.93164062 331.43774414 C244.11940314 300.12629363 224.68205212 270.27949049 202.82519531 242.26049805 C201.36744426 240.39073311 199.9183048 238.5145904 198.47070312 236.63696289 C193.37329442 230.05466081 188.10683416 223.65219203 182.65283203 217.36206055 C179.56469441 213.79897963 176.56711018 210.1813609 173.61914062 206.50024414 C170.19772689 202.28070677 166.5682385 198.42871605 162.64257812 194.67602539 C160.77348917 192.78505747 159.06378691 190.87906066 157.34179688 188.85961914 C152.52825479 183.31153466 147.31022049 178.16687352 142.10961914 172.98535156 C140.37270462 171.25379714 138.64120173 169.51696055 136.91015625 167.77954102 C131.21231308 162.0778681 125.48141762 156.50289689 119.30664062 151.31274414 C118.188778 150.35128895 117.07157425 149.3890671 115.95507812 148.42602539 C114.8643756 147.49191377 113.77321942 146.55833162 112.68164062 145.62524414 C109.04034493 142.51250773 105.40075344 139.39838959 101.78320312 136.25805664 C95.53895472 130.84824458 89.21666462 125.58732368 82.68847656 120.52294922 C78.92322631 117.59899382 75.22106196 114.61076755 71.54467773 111.57592773 C63.13021973 104.64224074 54.43675394 98.19039315 45.53710938 91.89477539 C43.36919071 90.35710979 41.21184181 88.80566763 39.05664062 87.25024414 C21.51392722 74.64141888 3.07782495 63.68408496 -15.69628906 53.0168457 C-18.31698318 51.52674755 -20.93159901 50.02664642 -23.54492188 48.52368164 C-51.18064033 32.75807191 -80.73260771 20.80466891 -110.38085938 9.43774414 C-114.8196324 7.7327021 -119.25699149 6.024034 -123.69335938 4.31274414 C-124.82725098 3.87607422 -125.96114258 3.4394043 -127.12939453 2.98950195 C-130.4881348 1.69079543 -133.84133356 0.37867076 -137.19335938 -0.93725586 C-138.20100342 -1.32510254 -139.20864746 -1.71294922 -140.24682617 -2.11254883 C-154.31494163 -7.67570444 -154.31494163 -7.67570444 -158.69335938 -11.68725586 C-158.9609375 -14.37573242 -158.9609375 -14.37573242 -158.69335938 -16.68725586 C-115.79152143 -35.77255947 -42.77664482 -12.7054484 0 0 Z " fill="#FFFFFF" transform="translate(1205.693359375,794.687255859375)"/>
<path d="M0 0 C2.55986876 2.51738131 4.80084338 5.16361499 7 8 C7.74636719 8.94875 8.49273438 9.8975 9.26171875 10.875 C20.78034018 25.99605881 35.98894632 49.18157064 34 69 C32.10328862 77.22838025 28.33194273 84.39508274 21 89 C13.21508164 92.73556543 5.18710989 93.35559852 -3 90.5625 C-14.15868168 85.56816047 -21.56237397 75.08896582 -28.80078125 65.65234375 C-40.1284213 50.88735086 -52.68888865 36.21851856 -72 33 C-79.90710587 32.36233017 -86.44990885 34.49699577 -93.703125 37.53515625 C-103.38652495 41.53574857 -112.40965849 44.34498356 -122.8828125 41.109375 C-129.85832443 37.98601145 -134.69720491 33.33100309 -137.875 26.375 C-140.30179922 18.95015001 -140.19203549 9.95062704 -136.9921875 2.7890625 C-135.2273199 -0.39325783 -133.29986555 -3.16939625 -131 -6 C-130.34 -6 -129.68 -6 -129 -6 C-128.67 -6.99 -128.34 -7.98 -128 -9 C-115.57929459 -19.68180666 -100.02344698 -25.47314854 -84 -28 C-82.74896484 -28.21269531 -82.74896484 -28.21269531 -81.47265625 -28.4296875 C-51.51442641 -32.51716645 -21.80767818 -19.80566183 0 0 Z " fill="#FFFFFF" transform="translate(2000,247)"/>
<path d="M0 0 C6.31751423 5.4205832 10.27506238 10.25662726 11.109375 18.78515625 C11.43974054 26.20567446 9.53396971 32.63295704 4.48828125 38.24609375 C-1.96221626 43.85660018 -8.52431849 45.71823724 -16.88671875 45.83984375 C-18.23633956 45.86794553 -19.58594875 45.89661015 -20.93554688 45.92578125 C-23.03929898 45.96671123 -25.14284205 46.00363761 -27.24682617 46.03027344 C-40.24944736 46.20870761 -53.68390023 47.59748598 -64.0703125 56.2734375 C-75.18861418 67.85500175 -77.98822532 85.09882586 -81.34765625 100.19921875 C-81.55769287 101.12605469 -81.76772949 102.05289063 -81.98413086 103.0078125 C-82.38277515 104.78082592 -82.76865095 106.55678106 -83.13891602 108.3359375 C-85.53012375 119.02974586 -90.76385631 127.30774294 -99.8515625 133.50390625 C-106.95054591 135.96124666 -113.9188899 136.50924791 -120.97265625 133.6953125 C-129.24703583 129.55053154 -133.55387756 124.27156122 -136.84765625 115.68359375 C-144.58586685 88.46643921 -132.82674095 52.86671437 -120.02929688 29.03271484 C-115.96686 21.917267 -111.04020169 16.25975011 -105.1015625 10.62890625 C-104.4828125 9.99210937 -103.8640625 9.3553125 -103.2265625 8.69921875 C-76.33376228 -17.35318146 -30.68042972 -22.51073675 0 0 Z " fill="#FFFFFF" transform="translate(1432.1015625,365.37109375)"/>
</svg>
