<svg width="611" height="95" viewBox="0 0 611 95" fill="none" xmlns="http://www.w3.org/2000/svg">
<path d="M0.741882 49.4219H10.7516C15.0811 53.3281 19.7035 56.1927 24.6188 58.0156C29.5342 59.806 34.6774 60.7012 40.0485 60.7012C42.3923 60.7012 44.5407 60.4733 46.4938 60.0176C48.447 59.5618 50.1397 58.9434 51.572 58.1621C53.0043 57.3483 54.111 56.4043 54.8923 55.3301C55.7061 54.2559 56.113 53.1003 56.113 51.8633C56.113 50.431 55.6572 49.1126 54.7458 47.9082C53.8343 46.7038 52.3695 45.6133 50.3513 44.6367C48.3656 43.6602 45.794 42.8138 42.6364 42.0977C39.5114 41.3815 35.7354 40.7956 31.3083 40.3398C26.1651 39.819 21.7868 38.9727 18.1735 37.8008C14.5602 36.5964 11.598 35.1478 9.2868 33.4551C7.00816 31.7624 5.33173 29.8743 4.25751 27.791C3.21584 25.7077 2.69501 23.5104 2.69501 21.1992C2.69501 19.0508 3.3135 16.9837 4.55048 14.998C5.78746 12.9798 7.62665 11.2057 10.0681 9.67578C12.5095 8.11328 15.5531 6.86003 19.1989 5.91602C22.8447 4.97201 27.0765 4.5 31.8942 4.5C34.6937 4.5 37.249 4.72786 39.5602 5.18359C41.904 5.60677 44.0524 6.19271 46.0056 6.94141C47.9912 7.6901 49.8141 8.58529 51.4743 9.62695C53.1345 10.6361 54.697 11.7266 56.1618 12.8984V6.20898H67.1481V23.7871H56.1618C55.1852 22.1595 53.9157 20.6458 52.3532 19.2461C50.7907 17.8464 48.9841 16.6419 46.9333 15.6328C44.9151 14.5911 42.7015 13.7773 40.2927 13.1914C37.8838 12.6055 35.361 12.3125 32.7243 12.3125C29.9574 12.3125 27.516 12.5729 25.4001 13.0938C23.3168 13.582 21.5589 14.2331 20.1266 15.0469C18.7269 15.8281 17.669 16.707 16.9528 17.6836C16.2367 18.6602 15.8786 19.6204 15.8786 20.5645C15.8786 21.7689 16.1878 22.9245 16.8063 24.0312C17.4574 25.1055 18.5804 26.1146 20.1755 27.0586C21.8031 27.9701 24.0003 28.8001 26.7673 29.5488C29.5342 30.265 33.0498 30.8835 37.3141 31.4043C43.3037 32.153 48.3168 33.097 52.3532 34.2363C56.3897 35.3757 59.6286 36.7591 62.07 38.3867C64.5114 39.9818 66.253 41.8535 67.2946 44.002C68.3363 46.1178 68.8571 48.5104 68.8571 51.1797C68.8571 53.1979 68.3037 55.2324 67.197 57.2832C66.1227 59.334 64.4626 61.1895 62.2165 62.8496C60.003 64.5098 57.1872 65.8607 53.7692 66.9023C50.3513 67.944 46.3311 68.4648 41.7087 68.4648C38.8115 68.4648 36.0283 68.2695 33.3591 67.8789C30.7224 67.5208 28.167 66.9837 25.6931 66.2676C23.2516 65.5189 20.8753 64.6074 18.5641 63.5332C16.253 62.459 13.9743 61.2057 11.7282 59.7734V67H0.741882V49.4219ZM59.0915 27.2051H70.6638V8.69922H72.7145V29.0605H59.0915V27.2051ZM19.9313 20.2715C19.9313 19.5879 20.2731 18.9694 20.9567 18.416C21.6729 17.8626 22.6494 17.3906 23.8864 17C25.1234 16.6094 26.572 16.3001 28.2321 16.0723C29.9248 15.8444 31.7477 15.7305 33.7009 15.7305C36.6631 15.7305 39.3975 16.2025 41.904 17.1465C44.4431 18.0579 46.5427 19.2461 48.2028 20.7109C47.2914 20.3203 46.266 19.946 45.1266 19.5879C43.9873 19.1973 42.7829 18.8555 41.5134 18.5625C40.2764 18.237 38.9906 17.9928 37.6559 17.8301C36.3539 17.6348 35.0681 17.5371 33.7985 17.5371C30.2503 17.5371 27.3207 17.8301 25.0095 18.416C22.7308 18.9694 21.0381 19.5879 19.9313 20.2715ZM4.11102 32.918C5.21779 34.3503 6.5036 35.6361 7.96844 36.7754C9.46584 37.9147 11.2562 38.9238 13.3395 39.8027C15.4554 40.6816 17.9131 41.4466 20.7126 42.0977C23.5446 42.7487 26.8487 43.2858 30.6247 43.709C34.3031 44.1322 37.4444 44.5716 40.0485 45.0273C42.6852 45.4831 44.8662 45.9876 46.5915 46.541C48.3168 47.0618 49.6351 47.6641 50.5466 48.3477C51.4906 49.0312 52.1253 49.8288 52.4509 50.7402C51.5069 50.1868 50.4977 49.6986 49.4235 49.2754C48.3819 48.8197 47.0309 48.3965 45.3708 48.0059C43.7106 47.5827 41.6273 47.1758 39.1208 46.7852C36.6143 46.3945 33.4567 45.9714 29.6481 45.5156C25.6442 45.0273 22.096 44.36 19.0036 43.5137C15.9437 42.6673 13.3395 41.707 11.1911 40.6328C9.07522 39.526 7.41506 38.3216 6.21063 37.0195C5.03876 35.6849 4.33889 34.3177 4.11102 32.918ZM15.2438 70.418V65.584C19.1501 67.6348 23.2354 69.1973 27.4997 70.2715C31.764 71.3457 36.4841 71.8828 41.6599 71.8828C45.5987 71.8828 49.4072 71.4596 53.0856 70.6133C56.764 69.7669 60.0355 68.4974 62.9001 66.8047C65.7647 65.112 68.0596 62.9798 69.7849 60.4082C71.5101 57.8366 72.3727 54.8255 72.3727 51.375C72.3727 49.2917 72.1449 47.4036 71.6891 45.7109C71.266 43.9857 70.4033 42.2604 69.1013 40.5352C69.8825 41.0885 70.5824 41.7721 71.2009 42.5859C71.8519 43.3672 72.4053 44.2461 72.861 45.2227C73.3168 46.1667 73.6748 47.1758 73.9352 48.25C74.1957 49.2917 74.3259 50.3333 74.3259 51.375C74.3259 54.9557 73.4632 58.1296 71.738 60.8965C70.0453 63.6634 67.7178 65.9909 64.7556 67.8789C61.7933 69.7995 58.3265 71.248 54.3552 72.2246C50.3838 73.2337 46.1358 73.7383 41.611 73.7383C36.5329 73.7383 31.9919 73.2988 27.988 72.4199C24.0166 71.541 20.4522 70.3203 17.2946 68.7578V72.2734H3.67157V70.418H15.2438ZM84.3278 82.0938V29.7344H74.0153V21.7656H94.4059V28C96.7497 25.625 99.5934 23.7656 102.937 22.4219C106.281 21.0469 109.922 20.3594 113.859 20.3594C118.172 20.3594 122 21.0156 125.343 22.3281C128.687 23.6094 131.5 25.3281 133.781 27.4844C136.062 29.6094 137.797 32.0469 138.984 34.7969C140.172 37.5469 140.765 40.3906 140.765 43.3281C140.765 47.1406 140.109 50.5469 138.797 53.5469C137.515 56.5156 135.703 59.0312 133.359 61.0938C131.015 63.1562 128.218 64.7344 124.968 65.8281C121.718 66.9219 118.125 67.4688 114.187 67.4688C110.125 67.4688 106.39 66.8594 102.984 65.6406C99.6091 64.3906 96.7497 62.5938 94.4059 60.25V82.0938H107.062V89.125H76.3591V82.0938H84.3278ZM97.5466 66.9062C99.7966 68.1562 102.39 69.1094 105.328 69.7656C108.297 70.4219 111.281 70.75 114.281 70.75C118.406 70.75 122.281 70.1562 125.906 68.9688C129.531 67.8125 132.687 66.0938 135.375 63.8125C138.093 61.5 140.234 58.6406 141.797 55.2344C143.359 51.7969 144.14 47.8281 144.14 43.3281C144.14 41.3906 143.859 39.4062 143.297 37.375C142.734 35.3125 141.937 33.3281 140.906 31.4219C139.875 29.4844 138.609 27.6719 137.109 25.9844C135.609 24.2969 133.922 22.8438 132.047 21.625C134.39 22.6875 136.437 24.0625 138.187 25.75C139.968 27.4062 141.437 29.2188 142.593 31.1875C143.781 33.1562 144.672 35.2031 145.265 37.3281C145.859 39.4219 146.156 41.4219 146.156 43.3281C146.156 47.7344 145.422 51.7344 143.953 55.3281C142.484 58.9219 140.359 62 137.578 64.5625C134.828 67.0938 131.468 69.0469 127.5 70.4219C123.562 71.8281 119.109 72.5312 114.14 72.5312C112.89 72.5312 111.609 72.4531 110.297 72.2969C108.984 72.1719 107.687 71.9844 106.406 71.7344C105.125 71.4844 103.875 71.1875 102.656 70.8438C101.468 70.5 100.39 70.1094 99.4216 69.6719V79.75H97.5466V66.9062ZM94.4059 44.2656C94.4059 46.7656 94.9216 49 95.9528 50.9688C97.0153 52.9375 98.4528 54.6094 100.265 55.9844C102.078 57.3594 104.187 58.4219 106.593 59.1719C109.031 59.8906 111.64 60.25 114.422 60.25C116.89 60.25 119.109 59.8594 121.078 59.0781C123.078 58.2969 124.781 57.1875 126.187 55.75C127.593 54.3125 128.672 52.5781 129.422 50.5469C130.203 48.4844 130.593 46.2031 130.593 43.7031C130.593 41.3281 130.14 39.1562 129.234 37.1875C128.359 35.1875 127.14 33.4844 125.578 32.0781C124.015 30.6719 122.172 29.5781 120.047 28.7969C117.953 28.0156 115.687 27.625 113.25 27.625C110.593 27.625 108.109 28.0156 105.797 28.7969C103.515 29.5781 101.531 30.7031 99.8434 32.1719C98.1559 33.6094 96.8278 35.3594 95.8591 37.4219C94.8903 39.4531 94.4059 41.7344 94.4059 44.2656ZM97.7809 44.2188C97.7809 42.4375 98.1403 40.7344 98.8591 39.1094C99.6091 37.4844 100.656 36.0625 102 34.8438C103.343 33.625 104.953 32.6562 106.828 31.9375C108.703 31.2188 110.797 30.8594 113.109 30.8594C115.578 30.8594 117.765 31.2969 119.672 32.1719C121.578 33.0156 123.031 34.1406 124.031 35.5469C122.156 34.3594 120.312 33.5938 118.5 33.25C116.718 32.875 114.922 32.6875 113.109 32.6875C111.078 32.6875 109.234 33.0156 107.578 33.6719C105.953 34.2969 104.547 35.1406 103.359 36.2031C102.203 37.2344 101.312 38.4375 100.687 39.8125C100.062 41.1875 99.7497 42.6094 99.7497 44.0781C99.7497 46.9219 100.468 49.375 101.906 51.4375C103.343 53.5 105.672 55.2812 108.89 56.7812C107.234 56.4375 105.718 55.9062 104.343 55.1875C103 54.4375 101.828 53.5312 100.828 52.4688C99.8591 51.375 99.1091 50.1406 98.5778 48.7656C98.0466 47.3906 97.7809 45.875 97.7809 44.2188ZM76.8278 33.0156H82.3591V34.7969H76.8278V33.0156ZM110.437 92.4062V84.7188H112.312V94.1875H79.1716V92.4062H110.437ZM144.855 59.9688H155.167V8.64062H144.855V1.60938H165.245V59.9688H175.558V67H144.855V59.9688ZM168.527 4H170.402V57.1562H168.527V4ZM147.667 11.9219H153.198V13.7031H147.667V11.9219ZM178.933 70.2812V62.5938H180.808V72.0625H147.667V70.2812H178.933ZM178.007 44.5469C178.007 41.6406 178.616 38.75 179.835 35.875C181.053 33 182.85 30.4219 185.225 28.1406C187.632 25.8281 190.6 23.9531 194.132 22.5156C197.663 21.0781 201.725 20.3594 206.319 20.3594C207.788 20.3594 209.35 20.4688 211.007 20.6875C212.694 20.9062 214.366 21.2656 216.022 21.7656C217.71 22.2656 219.35 22.9375 220.944 23.7812C222.538 24.5938 223.991 25.5938 225.303 26.7812V21.7656H245.46V29.7344H235.147V59.9688H245.46V67H225.303V60.9062C224.085 62.125 222.694 63.2031 221.132 64.1406C219.6 65.0781 217.96 65.8594 216.21 66.4844C214.491 67.1094 212.694 67.5781 210.819 67.8906C208.975 68.2344 207.132 68.4062 205.288 68.4062C200.788 68.4062 196.835 67.7656 193.428 66.4844C190.022 65.2031 187.178 63.4844 184.897 61.3281C182.616 59.1406 180.897 56.6094 179.741 53.7344C178.585 50.8281 178.007 47.7656 178.007 44.5469ZM238.522 33.0156H248.835V25.3281H250.71V34.7969H240.397V57.1562H238.522V33.0156ZM188.178 44.1719C188.178 46.7656 188.632 49.1094 189.538 51.2031C190.475 53.2969 191.741 55.0781 193.335 56.5469C194.928 58.0156 196.819 59.1562 199.007 59.9688C201.194 60.7812 203.553 61.1875 206.085 61.1875C207.553 61.1875 209.038 61.0469 210.538 60.7656C212.069 60.4531 213.538 60 214.944 59.4062C216.382 58.7812 217.725 58.0156 218.975 57.1094C220.257 56.1719 221.35 55.0781 222.257 53.8281C223.194 52.5469 223.928 51.0938 224.46 49.4688C225.022 47.8438 225.303 46.0312 225.303 44.0312C225.303 41.8125 224.788 39.7188 223.757 37.75C222.725 35.75 221.335 34 219.585 32.5C217.866 31 215.85 29.8125 213.538 28.9375C211.225 28.0625 208.788 27.625 206.225 27.625C203.663 27.625 201.272 28.0156 199.053 28.7969C196.866 29.5781 194.96 30.6875 193.335 32.125C191.741 33.5625 190.475 35.3125 189.538 37.375C188.632 39.4062 188.178 41.6719 188.178 44.1719ZM191.413 44.4062C191.413 42.4375 191.772 40.6406 192.491 39.0156C193.241 37.3594 194.272 35.9375 195.585 34.75C196.897 33.5312 198.46 32.5938 200.272 31.9375C202.085 31.25 204.069 30.9062 206.225 30.9062C207.85 30.9062 209.319 31.0938 210.632 31.4688C211.944 31.8125 213.085 32.25 214.053 32.7812C215.022 33.2812 215.819 33.8125 216.444 34.375C217.069 34.9062 217.507 35.375 217.757 35.7812C216.069 34.8438 214.335 34.0938 212.553 33.5312C210.772 32.9688 208.663 32.6875 206.225 32.6875C204.257 32.6875 202.475 33.0156 200.882 33.6719C199.319 34.2969 197.975 35.1562 196.85 36.25C195.725 37.3438 194.85 38.6094 194.225 40.0469C193.632 41.4844 193.335 43 193.335 44.5938C193.335 46.0938 193.507 47.5 193.85 48.8125C194.194 50.125 194.741 51.3438 195.491 52.4688C196.272 53.5625 197.272 54.5781 198.491 55.5156C199.741 56.4219 201.241 57.2188 202.991 57.9062C201.022 57.5625 199.303 56.9844 197.835 56.1719C196.397 55.3281 195.194 54.3125 194.225 53.125C193.288 51.9375 192.585 50.6094 192.116 49.1406C191.647 47.6406 191.413 46.0625 191.413 44.4062ZM248.835 70.2812V62.5938H250.71V72.0625H228.116V70.2812H248.835ZM184.053 64.9844C185.335 66.0156 186.788 66.9375 188.413 67.75C190.038 68.5938 191.772 69.2969 193.616 69.8594C195.46 70.4531 197.366 70.9062 199.335 71.2188C201.335 71.5312 203.335 71.6875 205.335 71.6875C208.803 71.6875 212.038 71.25 215.038 70.375C218.069 69.5312 220.757 68.3438 223.1 66.8125V68.9688C220.757 70.375 218.038 71.4688 214.944 72.25C211.882 73.0625 208.694 73.4688 205.382 73.4688C203.1 73.4688 200.866 73.2812 198.678 72.9062C196.491 72.5625 194.46 72.0312 192.585 71.3125C190.71 70.5938 189.038 69.7031 187.569 68.6406C186.1 67.5781 184.928 66.3594 184.053 64.9844ZM262.112 0.71875H273.596V10.0938H262.112V0.71875ZM264.924 13.375H276.971V3.34375H278.846V15.1562H264.924V13.375ZM240.924 74.3125C241.955 75.5938 242.955 76.6562 243.924 77.5C244.893 78.375 245.893 79.0781 246.924 79.6094C247.987 80.1406 249.112 80.5156 250.299 80.7344C251.518 80.9531 252.862 81.0625 254.33 81.0625C255.08 81.0625 255.862 80.9375 256.674 80.6875C257.487 80.4375 258.268 80.0312 259.018 79.4688C259.768 78.9375 260.455 78.25 261.08 77.4062C261.705 76.5625 262.205 75.5312 262.58 74.3125C262.924 73.1562 263.158 71.8281 263.283 70.3281C263.44 68.8594 263.518 67.1875 263.518 65.3125V29.7812H252.737V21.7656H273.596V58.2812C273.596 59.6875 273.549 61.1875 273.455 62.7812C273.393 64.3438 273.299 65.8594 273.174 67.3281C273.049 68.8281 272.893 70.2188 272.705 71.5C272.549 72.8125 272.377 73.8906 272.19 74.7344C271.752 76.7656 270.987 78.6406 269.893 80.3594C268.799 82.1094 267.44 83.625 265.815 84.9062C264.221 86.1875 262.362 87.1875 260.237 87.9062C258.143 88.6562 255.877 89.0312 253.44 89.0312C251.971 89.0312 250.424 88.8594 248.799 88.5156C247.174 88.2031 245.565 87.7031 243.971 87.0156C242.377 86.3281 240.846 85.4531 239.377 84.3906C237.877 83.3281 236.518 82.0625 235.299 80.5938L240.924 74.3125ZM237.268 87.3906C238.33 88.1719 239.518 88.8594 240.83 89.4531C242.112 90.0781 243.471 90.5938 244.908 91C246.315 91.4375 247.783 91.7656 249.315 91.9844C250.846 92.2031 252.362 92.3125 253.862 92.3125C257.424 92.3125 260.612 91.6719 263.424 90.3906C266.268 89.1094 268.69 87.2969 270.69 84.9531C272.69 82.6406 274.221 79.875 275.283 76.6562C276.346 73.4375 276.877 69.875 276.877 65.9688V24.1562H278.752V65.9688C278.752 70.2812 278.143 74.1719 276.924 77.6406C275.737 81.1094 274.049 84.0625 271.862 86.5C269.674 88.9375 267.049 90.8125 263.987 92.125C260.955 93.4375 257.596 94.0938 253.908 94.0938C251.752 94.0938 249.815 93.9219 248.096 93.5781C246.408 93.2656 244.893 92.8125 243.549 92.2188C242.205 91.625 241.033 90.9219 240.033 90.1094C239.002 89.2969 238.08 88.3906 237.268 87.3906ZM255.549 33.0625H261.549V34.8438H255.549V33.0625ZM246.877 73.8906C247.19 74.3594 247.596 74.8125 248.096 75.25C248.596 75.6875 249.143 76.0938 249.737 76.4688C250.33 76.8438 250.94 77.1719 251.565 77.4531C252.19 77.7656 252.768 78 253.299 78.1562C252.612 78.1562 251.877 78.0781 251.096 77.9219C250.346 77.7656 249.612 77.5469 248.893 77.2656C248.205 77.0156 247.565 76.7188 246.971 76.375C246.408 76.0312 245.971 75.6719 245.658 75.2969L246.877 73.8906ZM282.092 45.1094C282.092 41.7031 282.826 38.5 284.295 35.5C285.763 32.4688 287.81 29.8438 290.435 27.625C293.092 25.375 296.263 23.6094 299.951 22.3281C303.638 21.0156 307.685 20.3594 312.092 20.3594C316.717 20.3594 320.842 20.9844 324.467 22.2344C328.123 23.4531 331.201 25.1562 333.701 27.3438C336.232 29.5312 338.154 32.125 339.467 35.125C340.81 38.125 341.482 41.3906 341.482 44.9219C341.482 48.3281 340.748 51.4688 339.279 54.3438C337.842 57.2188 335.779 59.7031 333.092 61.7969C330.435 63.8594 327.232 65.4844 323.482 66.6719C319.763 67.8281 315.607 68.4062 311.013 68.4062C306.67 68.4062 302.717 67.7656 299.154 66.4844C295.623 65.1719 292.592 63.4375 290.06 61.2812C287.529 59.125 285.56 56.6562 284.154 53.875C282.779 51.0625 282.092 48.1406 282.092 45.1094ZM289.451 64.8438C292.482 67.0312 295.826 68.7188 299.482 69.9062C303.17 71.0938 307.326 71.6875 311.951 71.6875C316.263 71.6875 320.404 71.0938 324.373 69.9062C328.342 68.75 331.842 67.0312 334.873 64.75C337.904 62.4688 340.326 59.6719 342.138 56.3594C343.951 53.0156 344.857 49.2031 344.857 44.9219C344.857 42.8281 344.56 40.7188 343.967 38.5938C343.404 36.4375 342.592 34.375 341.529 32.4062C340.498 30.4375 339.232 28.6094 337.732 26.9219C336.232 25.2031 334.56 23.75 332.717 22.5625C334.81 23.5 336.717 24.7344 338.435 26.2656C340.185 27.7969 341.67 29.5469 342.888 31.5156C344.107 33.4531 345.045 35.5625 345.701 37.8438C346.388 40.125 346.732 42.4844 346.732 44.9219C346.732 47.9844 346.295 50.8281 345.42 53.4531C344.545 56.0469 343.326 58.4062 341.763 60.5312C340.232 62.625 338.388 64.4844 336.232 66.1094C334.107 67.7344 331.763 69.0781 329.201 70.1406C326.638 71.2344 323.904 72.0625 320.998 72.625C318.123 73.1875 315.185 73.4688 312.185 73.4688C309.685 73.4688 307.295 73.2656 305.013 72.8594C302.732 72.4844 300.607 71.9219 298.638 71.1719C296.701 70.4531 294.951 69.5625 293.388 68.5C291.826 67.4375 290.513 66.2188 289.451 64.8438ZM292.498 44.9219C292.498 47.3281 292.951 49.5312 293.857 51.5312C294.795 53.5 296.107 55.2031 297.795 56.6406C299.482 58.0469 301.498 59.1406 303.842 59.9219C306.217 60.7031 308.842 61.0938 311.717 61.0938C314.623 61.0938 317.263 60.7031 319.638 59.9219C322.013 59.1094 324.06 58 325.779 56.5938C327.498 55.1562 328.826 53.4531 329.763 51.4844C330.701 49.4844 331.17 47.2969 331.17 44.9219C331.17 42.5781 330.701 40.375 329.763 38.3125C328.826 36.2188 327.513 34.3906 325.826 32.8281C324.138 31.2344 322.107 29.9844 319.732 29.0781C317.388 28.1406 314.795 27.6719 311.951 27.6719C308.982 27.6719 306.295 28.125 303.888 29.0312C301.513 29.9062 299.482 31.125 297.795 32.6875C296.107 34.2188 294.795 36.0312 293.857 38.125C292.951 40.2188 292.498 42.4844 292.498 44.9219ZM295.779 45.1094C295.779 43.1406 296.17 41.2969 296.951 39.5781C297.732 37.8281 298.826 36.3281 300.232 35.0781C301.67 33.7969 303.373 32.7969 305.342 32.0781C307.342 31.3281 309.545 30.9531 311.951 30.9531C313.482 30.9531 314.967 31.125 316.404 31.4688C317.842 31.7812 319.17 32.25 320.388 32.875C321.607 33.5 322.685 34.2656 323.623 35.1719C324.56 36.0469 325.31 37.0469 325.873 38.1719C323.81 36.2969 321.654 34.9219 319.404 34.0469C317.185 33.1719 314.67 32.7344 311.857 32.7344C309.826 32.7344 307.951 33.0625 306.232 33.7188C304.513 34.375 303.013 35.2656 301.732 36.3906C300.451 37.5156 299.451 38.8281 298.732 40.3281C298.013 41.8281 297.654 43.4219 297.654 45.1094C297.654 46.5156 297.826 47.8281 298.17 49.0469C298.513 50.2656 299.092 51.4062 299.904 52.4688C300.748 53.5 301.857 54.4375 303.232 55.2812C304.607 56.125 306.326 56.875 308.388 57.5312C306.513 57.4062 304.795 57.0156 303.232 56.3594C301.701 55.6719 300.373 54.7812 299.248 53.6875C298.154 52.5938 297.295 51.3125 296.67 49.8438C296.076 48.375 295.779 46.7969 295.779 45.1094ZM348.009 59.9688H358.322V29.7344H348.009V21.7656H368.4V28.7969C369.337 27.6094 370.462 26.5 371.775 25.4688C373.087 24.4375 374.556 23.5469 376.181 22.7969C377.837 22.0469 379.618 21.4531 381.525 21.0156C383.462 20.5781 385.509 20.3594 387.665 20.3594C392.072 20.3594 395.837 21.2188 398.962 22.9375C402.118 24.6562 404.556 27.3125 406.275 30.9062C407.431 29.375 408.775 27.9688 410.306 26.6875C411.868 25.375 413.572 24.25 415.415 23.3125C417.259 22.375 419.228 21.6562 421.322 21.1562C423.447 20.625 425.665 20.3594 427.978 20.3594C431.197 20.3594 434.103 20.8281 436.697 21.7656C439.29 22.7031 441.493 24.1406 443.306 26.0781C445.15 27.9844 446.556 30.4062 447.525 33.3438C448.525 36.25 449.025 39.6875 449.025 43.6562V59.9688H459.337V67H430.978V59.9688H438.947V47.875C438.947 44.9375 438.822 42.375 438.572 40.1875C438.322 38 437.9 36.3125 437.306 35.125C436.118 32.6562 434.509 30.9062 432.478 29.875C430.478 28.8438 428.118 28.3281 425.4 28.3281C423.837 28.3281 422.243 28.625 420.618 29.2188C418.993 29.7812 417.431 30.5781 415.931 31.6094C414.431 32.6406 413.04 33.8594 411.759 35.2656C410.478 36.6719 409.4 38.1875 408.525 39.8125C408.587 40.4375 408.634 41.0781 408.665 41.7344C408.697 42.3594 408.712 43 408.712 43.6562V59.9688H416.681V67H390.665V59.9688H398.634V47.6406C398.634 45.1094 398.509 42.8594 398.259 40.8906C398.04 38.8906 397.712 37.3281 397.275 36.2031C396.181 33.3594 394.587 31.3438 392.493 30.1562C390.4 28.9375 387.931 28.3281 385.087 28.3281C383.525 28.3281 381.947 28.6094 380.353 29.1719C378.759 29.7344 377.212 30.5156 375.712 31.5156C374.243 32.5156 372.868 33.7031 371.587 35.0781C370.337 36.4531 369.275 37.9375 368.4 39.5312V59.9688H376.368V67H348.009V59.9688ZM442.462 21.7656C444.587 22.2969 446.4 23.2031 447.9 24.4844C449.4 25.7344 450.618 27.3281 451.556 29.2656C452.493 31.2031 453.181 33.4375 453.618 35.9688C454.056 38.5 454.275 41.2812 454.275 44.3125V57.1562H452.4V43.9844C452.4 41.2344 452.181 38.6875 451.743 36.3438C451.337 33.9688 450.712 31.8438 449.868 29.9688C449.025 28.0625 447.978 26.4219 446.728 25.0469C445.509 23.6719 444.087 22.5781 442.462 21.7656ZM402.15 21.7656C403.65 21.9531 404.962 22.375 406.087 23.0312C407.243 23.6875 408.134 24.4062 408.759 25.1875L407.4 26.4531C407.212 26.0781 406.915 25.6562 406.509 25.1875C406.134 24.7188 405.697 24.2656 405.197 23.8281C404.728 23.3594 404.212 22.9531 403.65 22.6094C403.118 22.2344 402.618 21.9531 402.15 21.7656ZM412.087 40.75C412.868 39.375 413.775 38.125 414.806 37C415.837 35.875 416.947 34.9219 418.134 34.1406C419.322 33.3281 420.572 32.7031 421.884 32.2656C423.197 31.8281 424.54 31.6094 425.915 31.6094C428.072 31.6094 429.837 32.0156 431.212 32.8281C432.618 33.6406 433.634 34.6719 434.259 35.9219C433.29 35.2031 432.134 34.6094 430.79 34.1406C429.447 33.6406 427.79 33.3906 425.822 33.3906C424.603 33.3906 423.384 33.6094 422.165 34.0469C420.978 34.4531 419.853 35.0156 418.79 35.7344C417.759 36.4531 416.822 37.2812 415.978 38.2188C415.134 39.1562 414.462 40.125 413.962 41.125V57.1562H412.087V40.75ZM371.775 40.75C372.556 39.375 373.462 38.125 374.493 37C375.525 35.875 376.634 34.9219 377.822 34.1406C379.009 33.3281 380.259 32.7031 381.572 32.2656C382.884 31.8281 384.228 31.6094 385.603 31.6094C387.759 31.6094 389.525 32.0156 390.9 32.8281C392.306 33.6406 393.322 34.6719 393.947 35.9219C392.978 35.2031 391.822 34.6094 390.478 34.1406C389.134 33.6406 387.478 33.3906 385.509 33.3906C384.29 33.3906 383.072 33.6094 381.853 34.0469C380.665 34.4531 379.54 35.0156 378.478 35.7344C377.447 36.4531 376.509 37.2812 375.665 38.2188C374.822 39.1562 374.15 40.125 373.65 41.125V57.1562H371.775V40.75ZM350.822 33.0156H356.353V34.7969H350.822V33.0156ZM462.712 70.2812V62.5938H464.587V72.0625H433.79V70.2812H462.712ZM420.056 70.2812V62.5938H421.931V72.0625H393.478V70.2812H420.056ZM379.743 70.2812V62.5938H381.618V72.0625H350.822V70.2812H379.743ZM470.552 82.0938V29.7344H460.239V21.7656H480.63V28C482.973 25.625 485.817 23.7656 489.161 22.4219C492.505 21.0469 496.145 20.3594 500.083 20.3594C504.395 20.3594 508.223 21.0156 511.567 22.3281C514.911 23.6094 517.723 25.3281 520.005 27.4844C522.286 29.6094 524.02 32.0469 525.208 34.7969C526.395 37.5469 526.989 40.3906 526.989 43.3281C526.989 47.1406 526.333 50.5469 525.02 53.5469C523.739 56.5156 521.927 59.0312 519.583 61.0938C517.239 63.1562 514.442 64.7344 511.192 65.8281C507.942 66.9219 504.348 67.4688 500.411 67.4688C496.348 67.4688 492.614 66.8594 489.208 65.6406C485.833 64.3906 482.973 62.5938 480.63 60.25V82.0938H493.286V89.125H462.583V82.0938H470.552ZM483.77 66.9062C486.02 68.1562 488.614 69.1094 491.552 69.7656C494.52 70.4219 497.505 70.75 500.505 70.75C504.63 70.75 508.505 70.1562 512.13 68.9688C515.755 67.8125 518.911 66.0938 521.598 63.8125C524.317 61.5 526.458 58.6406 528.02 55.2344C529.583 51.7969 530.364 47.8281 530.364 43.3281C530.364 41.3906 530.083 39.4062 529.52 37.375C528.958 35.3125 528.161 33.3281 527.13 31.4219C526.098 29.4844 524.833 27.6719 523.333 25.9844C521.833 24.2969 520.145 22.8438 518.27 21.625C520.614 22.6875 522.661 24.0625 524.411 25.75C526.192 27.4062 527.661 29.2188 528.817 31.1875C530.005 33.1562 530.895 35.2031 531.489 37.3281C532.083 39.4219 532.38 41.4219 532.38 43.3281C532.38 47.7344 531.645 51.7344 530.177 55.3281C528.708 58.9219 526.583 62 523.802 64.5625C521.052 67.0938 517.692 69.0469 513.723 70.4219C509.786 71.8281 505.333 72.5312 500.364 72.5312C499.114 72.5312 497.833 72.4531 496.52 72.2969C495.208 72.1719 493.911 71.9844 492.63 71.7344C491.348 71.4844 490.098 71.1875 488.88 70.8438C487.692 70.5 486.614 70.1094 485.645 69.6719V79.75H483.77V66.9062ZM480.63 44.2656C480.63 46.7656 481.145 49 482.177 50.9688C483.239 52.9375 484.677 54.6094 486.489 55.9844C488.302 57.3594 490.411 58.4219 492.817 59.1719C495.255 59.8906 497.864 60.25 500.645 60.25C503.114 60.25 505.333 59.8594 507.302 59.0781C509.302 58.2969 511.005 57.1875 512.411 55.75C513.817 54.3125 514.895 52.5781 515.645 50.5469C516.427 48.4844 516.817 46.2031 516.817 43.7031C516.817 41.3281 516.364 39.1562 515.458 37.1875C514.583 35.1875 513.364 33.4844 511.802 32.0781C510.239 30.6719 508.395 29.5781 506.27 28.7969C504.177 28.0156 501.911 27.625 499.473 27.625C496.817 27.625 494.333 28.0156 492.02 28.7969C489.739 29.5781 487.755 30.7031 486.067 32.1719C484.38 33.6094 483.052 35.3594 482.083 37.4219C481.114 39.4531 480.63 41.7344 480.63 44.2656ZM484.005 44.2188C484.005 42.4375 484.364 40.7344 485.083 39.1094C485.833 37.4844 486.88 36.0625 488.223 34.8438C489.567 33.625 491.177 32.6562 493.052 31.9375C494.927 31.2188 497.02 30.8594 499.333 30.8594C501.802 30.8594 503.989 31.2969 505.895 32.1719C507.802 33.0156 509.255 34.1406 510.255 35.5469C508.38 34.3594 506.536 33.5938 504.723 33.25C502.942 32.875 501.145 32.6875 499.333 32.6875C497.302 32.6875 495.458 33.0156 493.802 33.6719C492.177 34.2969 490.77 35.1406 489.583 36.2031C488.427 37.2344 487.536 38.4375 486.911 39.8125C486.286 41.1875 485.973 42.6094 485.973 44.0781C485.973 46.9219 486.692 49.375 488.13 51.4375C489.567 53.5 491.895 55.2812 495.114 56.7812C493.458 56.4375 491.942 55.9062 490.567 55.1875C489.223 54.4375 488.052 53.5312 487.052 52.4688C486.083 51.375 485.333 50.1406 484.802 48.7656C484.27 47.3906 484.005 45.875 484.005 44.2188ZM463.052 33.0156H468.583V34.7969H463.052V33.0156ZM496.661 92.4062V84.7188H498.536V94.1875H465.395V92.4062H496.661ZM556.344 82.0938L563.516 68.7344L537.36 28.7969H527.328V21.7656H559.344V28.7969H549.407L568.766 58.9844L584.985 28.7969H573.594V21.7656H604.813V28.7969H595.297L562.391 89.125H544.438V82.0938H556.344ZM564.828 92.4062L597.782 32.0781H608.188V24.3906H610.063V33.8594H598.86L566 94.1875H547.25V92.4062H564.828ZM556.016 32.0781H562.719V24.3906H564.594V33.8594H559.344L570.172 50.7344L569.141 52.6094L556.016 32.0781ZM575.891 32.0781H580.766L579.828 33.8594H575.891V32.0781ZM530.141 32.0781H536.938L538.11 33.8594H530.141V32.0781Z" fill="black"/>
</svg>
