<svg width="1024" height="1024" viewBox="0 0 1024 1024" fill="none" xmlns="http://www.w3.org/2000/svg">
<path d="M156.531 627.219H256.629C299.923 666.281 346.147 694.927 395.301 713.156C444.454 731.06 495.887 740.012 549.598 740.012C573.035 740.012 594.52 737.733 614.051 733.176C633.582 728.618 650.509 722.434 664.832 714.621C679.155 706.483 690.223 697.043 698.035 686.301C706.173 675.559 710.242 664.003 710.242 651.633C710.242 637.31 705.685 624.126 696.57 612.082C687.456 600.038 672.807 589.133 652.625 579.367C632.768 569.602 607.052 561.138 575.477 553.977C544.227 546.815 506.466 540.956 462.195 536.398C410.763 531.19 366.98 522.727 330.848 511.008C294.715 498.964 265.092 484.478 241.98 467.551C219.194 450.624 202.43 431.743 191.688 410.91C181.271 390.077 176.062 368.104 176.062 344.992C176.062 323.508 182.247 302.837 194.617 282.98C206.987 262.798 225.379 245.057 249.793 229.758C274.207 214.133 304.643 201.6 341.102 192.16C377.56 182.72 419.878 178 468.055 178C496.049 178 521.603 180.279 544.715 184.836C568.152 189.068 589.637 194.927 609.168 202.414C629.025 209.901 647.254 218.853 663.855 229.27C680.457 239.361 696.082 250.266 710.73 261.984V195.09H820.594V370.871H710.73C700.965 354.595 688.27 339.458 672.645 325.461C657.02 311.464 638.953 299.419 618.445 289.328C598.263 278.911 576.128 270.773 552.039 264.914C527.951 259.055 502.723 256.125 476.355 256.125C448.686 256.125 424.272 258.729 403.113 263.938C382.28 268.82 364.702 275.331 350.379 283.469C336.382 291.281 325.802 300.07 318.641 309.836C311.479 319.602 307.898 329.204 307.898 338.645C307.898 350.689 310.991 362.245 317.176 373.312C323.686 384.055 334.917 394.146 350.867 403.586C367.143 412.701 389.116 421.001 416.785 428.488C444.454 435.65 479.611 441.835 522.254 447.043C582.15 454.53 632.28 463.97 672.645 475.363C713.009 486.757 745.398 500.591 769.812 516.867C794.227 532.818 811.642 551.535 822.059 573.02C832.475 594.178 837.684 618.104 837.684 644.797C837.684 664.979 832.15 685.324 821.082 705.832C810.34 726.34 793.738 744.895 771.277 761.496C749.142 778.098 720.984 791.607 686.805 802.023C652.625 812.44 612.423 817.648 566.199 817.648C537.228 817.648 509.396 815.695 482.703 811.789C456.336 808.208 430.783 802.837 406.043 795.676C381.629 788.189 357.866 779.074 334.754 768.332C311.642 757.59 288.855 745.057 266.395 730.734V803H156.531V627.219ZM740.027 405.051H855.75V219.992H876.258V423.605H740.027V405.051ZM348.426 335.715C348.426 328.879 351.844 322.694 358.68 317.16C365.841 311.626 375.607 306.906 387.977 303C400.346 299.094 414.832 296.001 431.434 293.723C448.361 291.444 466.59 290.305 486.121 290.305C515.743 290.305 543.087 295.025 568.152 304.465C593.543 313.579 614.539 325.461 631.141 340.109C622.026 336.203 611.772 332.46 600.379 328.879C588.986 324.973 576.941 321.555 564.246 318.625C551.876 315.37 539.018 312.928 525.672 311.301C512.651 309.348 499.793 308.371 487.098 308.371C451.616 308.371 422.319 311.301 399.207 317.16C376.421 322.694 359.493 328.879 348.426 335.715ZM190.223 462.18C201.29 476.503 214.148 489.361 228.797 500.754C243.771 512.147 261.674 522.238 282.508 531.027C303.667 539.816 328.243 547.466 356.238 553.977C384.559 560.487 417.599 565.858 455.359 570.09C492.143 574.322 523.556 578.716 549.598 583.273C575.965 587.831 597.775 592.876 615.027 598.41C632.28 603.618 645.464 609.641 654.578 616.477C664.018 623.312 670.366 631.288 673.621 640.402C664.181 634.868 654.09 629.986 643.348 625.754C632.931 621.197 619.422 616.965 602.82 613.059C586.219 608.827 565.385 604.758 540.32 600.852C515.255 596.945 483.68 592.714 445.594 588.156C405.555 583.273 370.073 576.6 339.148 568.137C308.549 559.673 282.508 550.07 261.023 539.328C239.865 528.26 223.263 516.216 211.219 503.195C199.5 489.849 192.501 476.177 190.223 462.18ZM301.551 837.18V788.84C340.613 809.348 381.466 824.973 424.109 835.715C466.753 846.457 513.953 851.828 565.711 851.828C605.099 851.828 643.185 847.596 679.969 839.133C716.753 830.669 749.467 817.974 778.113 801.047C806.759 784.12 829.708 762.798 846.961 737.082C864.214 711.366 872.84 681.255 872.84 646.75C872.84 625.917 870.561 607.036 866.004 590.109C861.772 572.857 853.146 555.604 840.125 538.352C847.938 543.885 854.936 550.721 861.121 558.859C867.632 566.672 873.165 575.461 877.723 585.227C882.28 594.667 885.861 604.758 888.465 615.5C891.069 625.917 892.371 636.333 892.371 646.75C892.371 682.557 883.745 714.296 866.492 741.965C849.565 769.634 826.29 792.909 796.668 811.789C767.046 830.995 732.378 845.48 692.664 855.246C652.951 865.337 610.47 870.383 565.223 870.383C514.441 870.383 469.031 865.988 428.992 857.199C389.279 848.41 353.634 836.203 322.059 820.578V855.734H185.828V837.18H301.551Z" fill="black"/>
</svg>
