<svg width="737" height="693" viewBox="0 0 737 693" fill="none" xmlns="http://www.w3.org/2000/svg">
<rect width="737" height="693" fill="#1E1E1E"/>
<rect x="-156" y="-178" width="1024" height="1024" fill="#0F0F0F"/>
<path d="M0.53125 449.219H100.629C143.923 488.281 190.147 516.927 239.301 535.156C288.454 553.06 339.887 562.012 393.598 562.012C417.035 562.012 438.52 559.733 458.051 555.176C477.582 550.618 494.509 544.434 508.832 536.621C523.155 528.483 534.223 519.043 542.035 508.301C550.173 497.559 554.242 486.003 554.242 473.633C554.242 459.31 549.685 446.126 540.57 434.082C531.456 422.038 516.807 411.133 496.625 401.367C476.768 391.602 451.052 383.138 419.477 375.977C388.227 368.815 350.466 362.956 306.195 358.398C254.763 353.19 210.98 344.727 174.848 333.008C138.715 320.964 109.092 306.478 85.9805 289.551C63.194 272.624 46.4297 253.743 35.6875 232.91C25.2708 212.077 20.0625 190.104 20.0625 166.992C20.0625 145.508 26.2474 124.837 38.6172 104.98C50.987 84.7982 69.3789 67.0573 93.793 51.7578C118.207 36.1328 148.643 23.6003 185.102 14.1602C221.56 4.72005 263.878 0 312.055 0C340.049 0 365.603 2.27865 388.715 6.83594C412.152 11.0677 433.637 16.9271 453.168 24.4141C473.025 31.901 491.254 40.8529 507.855 51.2695C524.457 61.3607 540.082 72.2656 554.73 83.9844V17.0898H664.594V192.871H554.73C544.965 176.595 532.27 161.458 516.645 147.461C501.02 133.464 482.953 121.419 462.445 111.328C442.263 100.911 420.128 92.7734 396.039 86.9141C371.951 81.0547 346.723 78.125 320.355 78.125C292.686 78.125 268.272 80.7292 247.113 85.9375C226.28 90.8203 208.702 97.3307 194.379 105.469C180.382 113.281 169.802 122.07 162.641 131.836C155.479 141.602 151.898 151.204 151.898 160.645C151.898 172.689 154.991 184.245 161.176 195.312C167.686 206.055 178.917 216.146 194.867 225.586C211.143 234.701 233.116 243.001 260.785 250.488C288.454 257.65 323.611 263.835 366.254 269.043C426.15 276.53 476.28 285.97 516.645 297.363C557.009 308.757 589.398 322.591 613.812 338.867C638.227 354.818 655.642 373.535 666.059 395.02C676.475 416.178 681.684 440.104 681.684 466.797C681.684 486.979 676.15 507.324 665.082 527.832C654.34 548.34 637.738 566.895 615.277 583.496C593.142 600.098 564.984 613.607 530.805 624.023C496.625 634.44 456.423 639.648 410.199 639.648C381.228 639.648 353.396 637.695 326.703 633.789C300.336 630.208 274.783 624.837 250.043 617.676C225.629 610.189 201.866 601.074 178.754 590.332C155.642 579.59 132.855 567.057 110.395 552.734V625H0.53125V449.219ZM584.027 227.051H699.75V41.9922H720.258V245.605H584.027V227.051ZM192.426 157.715C192.426 150.879 195.844 144.694 202.68 139.16C209.841 133.626 219.607 128.906 231.977 125C244.346 121.094 258.832 118.001 275.434 115.723C292.361 113.444 310.59 112.305 330.121 112.305C359.743 112.305 387.087 117.025 412.152 126.465C437.543 135.579 458.539 147.461 475.141 162.109C466.026 158.203 455.772 154.46 444.379 150.879C432.986 146.973 420.941 143.555 408.246 140.625C395.876 137.37 383.018 134.928 369.672 133.301C356.651 131.348 343.793 130.371 331.098 130.371C295.616 130.371 266.319 133.301 243.207 139.16C220.421 144.694 203.493 150.879 192.426 157.715ZM34.2227 284.18C45.2904 298.503 58.1484 311.361 72.7969 322.754C87.7708 334.147 105.674 344.238 126.508 353.027C147.667 361.816 172.243 369.466 200.238 375.977C228.559 382.487 261.599 387.858 299.359 392.09C336.143 396.322 367.556 400.716 393.598 405.273C419.965 409.831 441.775 414.876 459.027 420.41C476.28 425.618 489.464 431.641 498.578 438.477C508.018 445.312 514.366 453.288 517.621 462.402C508.181 456.868 498.09 451.986 487.348 447.754C476.931 443.197 463.422 438.965 446.82 435.059C430.219 430.827 409.385 426.758 384.32 422.852C359.255 418.945 327.68 414.714 289.594 410.156C249.555 405.273 214.073 398.6 183.148 390.137C152.549 381.673 126.508 372.07 105.023 361.328C83.8646 350.26 67.263 338.216 55.2188 325.195C43.5 311.849 36.5013 298.177 34.2227 284.18ZM145.551 659.18V610.84C184.613 631.348 225.466 646.973 268.109 657.715C310.753 668.457 357.953 673.828 409.711 673.828C449.099 673.828 487.185 669.596 523.969 661.133C560.753 652.669 593.467 639.974 622.113 623.047C650.759 606.12 673.708 584.798 690.961 559.082C708.214 533.366 716.84 503.255 716.84 468.75C716.84 447.917 714.561 429.036 710.004 412.109C705.772 394.857 697.146 377.604 684.125 360.352C691.938 365.885 698.936 372.721 705.121 380.859C711.632 388.672 717.165 397.461 721.723 407.227C726.28 416.667 729.861 426.758 732.465 437.5C735.069 447.917 736.371 458.333 736.371 468.75C736.371 504.557 727.745 536.296 710.492 563.965C693.565 591.634 670.29 614.909 640.668 633.789C611.046 652.995 576.378 667.48 536.664 677.246C496.951 687.337 454.47 692.383 409.223 692.383C358.441 692.383 313.031 687.988 272.992 679.199C233.279 670.41 197.634 658.203 166.059 642.578V677.734H29.8281V659.18H145.551Z" fill="white"/>
</svg>
