<?xml version="1.0" encoding="UTF-8"?>
<svg version="1.1" xmlns="http://www.w3.org/2000/svg" width="1697" height="1606">
<path d="M0 0 C1.27311035 0.03722168 2.5462207 0.07444336 3.85791016 0.11279297 C21.17426234 0.65148047 37.93276733 2.35090198 54.94702148 5.61572266 C64.96502738 7.53005841 74.97591618 8.96834059 85.09997559 10.19830322 C100.72932269 12.11313648 115.84499864 14.61147393 131 19 C132.19493073 19.34478394 132.19493073 19.34478394 133.41400146 19.6965332 C165.62417326 29.01905738 197.41546966 39.13158396 228 53 C229.1746582 53.52859619 229.1746582 53.52859619 230.37304688 54.06787109 C240.22934808 58.52929445 249.74520807 63.44720857 259.19116211 68.71630859 C268.38541086 73.7830212 277.78958849 78.40281979 287.19940186 83.05264282 C302.86031371 90.79674786 318.2096678 98.67168387 333 108 C334.5958273 108.98783083 336.19218628 109.97480322 337.7890625 110.9609375 C353.7360472 120.86724991 369.38458527 131.24528806 384.54541016 142.31835938 C389.28656624 145.77911879 394.08183933 149.13971477 398.9375 152.4375 C412.48747634 161.68127524 425.56860486 171.48052159 438.2265625 181.91015625 C441.83211623 184.87840199 445.50092236 187.7584591 449.1875 190.625 C466.27144893 203.96028659 483.17493806 218.14350624 496.70703125 235.1484375 C498.69851844 237.62507404 500.747918 240.03517623 502.83227539 242.43359375 C513.85230408 255.17084904 523.59888419 268.97750402 532.76269531 283.09472656 C534.08270242 285.12734998 535.41222521 287.1535658 536.7421875 289.1796875 C547.51612654 305.64340281 557.13026629 322.42650602 566 340 C566.48871582 340.96663574 566.97743164 341.93327148 567.48095703 342.92919922 C581.62851843 371.1249911 592.85996828 400.49948022 603.31738281 430.22558594 C604.78174673 434.38758715 606.26193524 438.54380631 607.74491882 442.69920349 C624.07884815 488.49984954 624.07884815 488.49984954 628.3671875 510.59375 C628.68537697 512.2101664 628.68537697 512.2101664 629.00999451 513.85923767 C629.45416218 516.11593079 629.89699555 518.37288692 630.33853149 520.63009644 C630.9766875 523.88123264 631.62361913 527.13047396 632.27416992 530.37915039 C638.48292783 561.41468899 644.22812352 592.07371551 646.07421875 623.71875 C646.11721792 624.45427156 646.16021709 625.18979313 646.20451927 625.94760323 C647.24297274 644.23949578 647.34041163 662.52864807 647.31567383 680.84545898 C647.3110128 684.58614022 647.31810152 688.32649855 647.33618164 692.06713867 C647.44058338 713.93983839 647.01871517 735.29737638 644 757 C643.69372845 759.32595715 643.38849242 761.65205086 643.08422852 763.97827148 C642.30683219 769.82906905 641.48090914 775.67162709 640.63037109 781.51220703 C640.12120987 785.02615737 639.62876892 788.54221148 639.13671875 792.05859375 C637.19917088 805.62231769 634.70604312 818.80770658 631 832 C630.80426392 832.70596313 630.60852783 833.41192627 630.40686035 834.13928223 C629.10259376 838.81997618 627.72850402 843.47699002 626.3125 848.125 C625.99377426 849.175168 625.99377426 849.175168 625.66860962 850.24655151 C621.44228985 864.10506677 616.44254183 877.57213636 611 891 C610.48452667 892.2852164 609.9697413 893.57070889 609.45556641 894.85644531 C588.47207381 947.32034867 564.61599638 997.15100903 527 1040 C526.36707031 1040.7321875 525.73414063 1041.464375 525.08203125 1042.21875 C520.46309022 1047.54585819 515.72353116 1052.76581682 511 1058 C510.3807666 1058.70084717 509.7615332 1059.40169434 509.12353516 1060.1237793 C503.49809168 1066.45477615 497.65835937 1072.52789037 491.67138672 1078.51391602 C490.1282647 1080.05923066 488.59335694 1081.61240446 487.05859375 1083.16601562 C481.42798749 1088.82775691 475.68286488 1094.09524447 469.41943359 1099.06030273 C467.03955449 1100.96828856 464.76306977 1102.95556759 462.5 1105 C458.49208421 1108.59865678 454.36442261 1112.01947753 450.1796875 1115.41015625 C447.85605545 1117.29468256 445.55329519 1119.20238604 443.2578125 1121.12109375 C428.01996473 1133.83215452 412.44504387 1146.09632037 395.75634766 1156.85546875 C393.97225691 1158.0180789 392.20892104 1159.20708832 390.44921875 1160.40625 C366.04147934 1177.0205599 339.94159617 1191.08489533 312.83300781 1202.7734375 C310.11142609 1203.95175761 307.39709001 1205.14578504 304.68418884 1206.34393311 C282.34727549 1216.20533171 260.6556363 1224.51999703 236.80908203 1230.10742188 C234.23259911 1230.71116637 231.65818789 1231.32027786 229.08544922 1231.93945312 C225.76646404 1232.73784254 222.44448304 1233.52245823 219.11999512 1234.29760742 C217.28594883 1234.72695336 215.45394339 1235.16499 213.62207031 1235.60351562 C194.46505537 1239.98375533 174.85283382 1241.52641086 155.29223633 1242.93530273 C151.80400007 1243.18811604 148.31711219 1243.45577494 144.83007812 1243.72460938 C131.5157145 1244.72386218 118.34647535 1245.26266675 105 1245 C103.80124237 1244.97972748 102.60248474 1244.95945496 101.36740112 1244.93856812 C29.5528143 1243.72143438 29.5528143 1243.72143438 -5.25488281 1239.3404541 C-8.29488753 1238.96342755 -11.33659585 1238.60305598 -14.37890625 1238.24511719 C-41.99970138 1234.9903721 -69.44533529 1231.22439065 -96.78872681 1226.12911987 C-102.11249114 1225.14286471 -107.44904581 1224.29895532 -112.80419922 1223.49951172 C-139.90278396 1219.39227491 -165.32678086 1210.22966834 -190.38989258 1199.47387695 C-198.77471046 1195.8906059 -207.22741906 1192.52070814 -215.72396851 1189.21325684 C-255.77193361 1173.60656739 -291.43372118 1153.05498684 -327 1129 C-327.76183594 1128.48695312 -328.52367187 1127.97390625 -329.30859375 1127.4453125 C-339.60069329 1120.50724912 -349.60252259 1113.20641652 -359.56347656 1105.80273438 C-361.9896139 1104.00768447 -364.42634001 1102.22810851 -366.8671875 1100.453125 C-380.02523936 1090.87011105 -392.85451586 1080.97201691 -404.859375 1069.9609375 C-406.79503051 1068.18776402 -408.76122464 1066.4630208 -410.75 1064.75 C-427.57409448 1050.05033293 -427.57409448 1050.05033293 -434.49609375 1041.7578125 C-436.08131473 1039.90495681 -437.75893153 1038.20662975 -439.5 1036.5 C-442.53594925 1033.51127663 -445.34508659 1030.38293521 -448.125 1027.15625 C-450.17359094 1024.80037042 -452.27203002 1022.4949254 -454.375 1020.1875 C-458.26729806 1015.87441296 -461.96211569 1011.43268288 -465.6171875 1006.91796875 C-468.20756649 1003.74581612 -470.84715792 1000.61985617 -473.5 997.5 C-491.49464324 976.28506733 -508.55422466 954.21539975 -524.38330078 931.33496094 C-525.51009276 929.70756159 -526.64165102 928.08345644 -527.77685547 926.46191406 C-535.50212769 915.39659166 -542.34168035 904.69332075 -547 892 C-547.27328125 891.27087402 -547.5465625 890.54174805 -547.828125 889.79052734 C-568.52390683 834.15885472 -580.70478612 773.83345697 -588 715 C-588.12695251 713.98172119 -588.12695251 713.98172119 -588.25646973 712.94287109 C-590.89238574 691.41514427 -591.30542018 669.84704839 -591.36791611 648.18111801 C-591.37484322 646.17050461 -591.3869014 644.15991097 -591.39907837 642.14932251 C-591.49025173 622.55685603 -590.24815174 603.44253668 -588 584 C-587.89776123 583.0939502 -587.79552246 582.18790039 -587.69018555 581.25439453 C-585.12790548 558.7579833 -580.73589719 536.88409554 -575 515 C-574.78845276 514.19284546 -574.57690552 513.38569092 -574.35894775 512.55407715 C-572.81160917 506.67342374 -571.22855663 500.8030508 -569.625 494.9375 C-569.40808502 494.13780792 -569.19117004 493.33811584 -568.96768188 492.51419067 C-568.35474226 490.26592989 -567.73035749 488.02121467 -567.1015625 485.77734375 C-566.9185408 485.10307343 -566.7355191 484.4288031 -566.54695129 483.73410034 C-566.0918609 482.13754854 -565.55352974 480.56514848 -565 479 C-564.34 478.67 -563.68 478.34 -563 478 C-562.78234985 479.35472412 -562.78234985 479.35472412 -562.56030273 480.73681641 C-553.3104513 537.77816745 -537.08917825 592.72752932 -510 644 C-509.60232422 644.75812988 -509.20464844 645.51625977 -508.79492188 646.29736328 C-494.80536172 672.81879279 -477.87058602 699.86393581 -456.12890625 720.7890625 C-454 723 -454 723 -454 725 C-453.34 725 -452.68 725 -452 725 C-450.5546875 726.46875 -450.5546875 726.46875 -448.875 728.5 C-442.73088433 736.19374836 -442.73088433 736.19374836 -435 742 C-435 742.66 -435 743.32 -435 744 C-434.18789063 744.32871094 -434.18789063 744.32871094 -433.359375 744.6640625 C-430.21248088 746.44591314 -427.82640937 748.87612421 -425.25 751.375 C-413.94146243 762.05393324 -401.24659488 770.90206808 -388 779 C-387.09604492 779.55905029 -387.09604492 779.55905029 -386.17382812 780.12939453 C-304.4590004 830.44651139 -200.43190313 854.64968 -55.13012695 834.79150391 C-33.17754813 829.49965385 -12.05625507 822.09855964 9 814 C9.79035645 813.69819824 10.58071289 813.39639648 11.39501953 813.08544922 C56.03932994 795.97817121 97.3400931 770.44758017 132.1328125 737.6796875 C134.66843602 735.30988132 137.25097763 733.02061868 139.875 730.75 C143.28820191 727.7401765 146.2525496 724.53807212 149.1875 721.06640625 C151.19962679 718.77240825 153.3260205 716.64092914 155.5 714.5 C159.54818477 710.49263726 163.30825355 706.33473165 167 702 C167.90450448 700.9475354 168.80949265 699.8954864 169.71484375 698.84375 C172.3009188 695.83738485 174.87855945 692.8239127 177.45361328 689.80810547 C178.93285207 688.07851241 180.41717424 686.35340659 181.90234375 684.62890625 C196.47678745 667.64567314 208.86370281 649.1870506 220.63916016 630.18994141 C221.82600326 628.28000552 223.02601549 626.37931215 224.23046875 624.48046875 C268.70732289 552.80013533 283.70075658 466.27865667 265 384 C258.70428689 357.45052585 250.27858653 331.84325904 239 307 C238.50983398 305.91428711 238.01966797 304.82857422 237.51464844 303.70996094 C214.98180166 253.9655432 186.15242762 212.22949455 147.625 173.5 C146.88797852 172.7582251 146.15095703 172.0164502 145.39160156 171.25219727 C140.75628784 166.63099648 135.97331499 162.2536486 131 158 C129.97898237 157.11088868 128.95813503 156.22158174 127.9375 155.33203125 C119.57242441 148.15719913 110.89713887 141.49965596 102 135 C101.33516602 134.50886719 100.67033203 134.01773438 99.98535156 133.51171875 C53.7637083 99.4465699 1.89050114 82.34307632 -55 78 C-55.78455566 77.93828613 -56.56911133 77.87657227 -57.37744141 77.81298828 C-96.76178821 74.93269755 -137.15312313 78.47253787 -176 85 C-176.70431152 85.11279297 -177.40862305 85.22558594 -178.13427734 85.34179688 C-216.09939403 91.48690436 -250.83078203 107.16925971 -285 124 C-285.89025879 124.43634766 -286.78051758 124.87269531 -287.69775391 125.32226562 C-303.1545773 132.9560568 -316.91416196 142.79925471 -330 154 C-331.170493 154.98447003 -332.34107145 155.96883846 -333.51171875 156.953125 C-374.55878086 191.71970404 -402.29079237 241.49907491 -410 295 C-410.10441406 295.69641602 -410.20882812 296.39283203 -410.31640625 297.11035156 C-417.62621505 347.23805939 -404.84336665 400.9219506 -375 442 C-371.90175094 445.89218202 -368.47630745 449.44629795 -365 453 C-364.11062578 454.07156409 -363.23271111 455.15292764 -362.375 456.25 C-331.67637723 491.79577373 -281.54820548 513.37195199 -235.63964844 517.72875977 C-190.88321037 520.97756083 -137.63659737 503.79124817 -103 475 C-97.84142751 470.50135066 -92.88436151 465.79326348 -88 461 C-87.39260986 460.40654785 -86.78521973 459.8130957 -86.15942383 459.20166016 C-56.4819408 429.91754583 -37.72611001 387.97442031 -35.83203125 346.3046875 C-35.70136718 323.36007711 -40.85948921 303.03041334 -52 283 C-52.50402344 282.07960938 -53.00804687 281.15921875 -53.52734375 280.2109375 C-69.25481299 252.76410753 -96.51830093 226.45687328 -127.375 217.25 C-150.3788659 211.60754233 -173.30406891 213.44989826 -195.625 220.8125 C-196.59550293 221.13154297 -197.56600586 221.45058594 -198.56591797 221.77929688 C-225.0939732 231.0024918 -243.39658904 250.62277538 -255.5 275.4375 C-264.51453772 294.71038461 -266.7174769 313.65265532 -259.96875 334.12890625 C-255.36975505 346.04589655 -247.88930412 355.93701499 -239 365 C-238.38769531 365.63679688 -237.77539062 366.27359375 -237.14453125 366.9296875 C-226.3595161 377.27778306 -211.68481321 381.85363974 -197 382 C-179.81094087 380.79004388 -160.70901905 375.3578401 -149 362 C-144.42454046 355.73827955 -143.18909498 349.75926011 -143.515625 342.05859375 C-144.4725211 336.01625789 -147.29800332 332.62094922 -151.625 328.5 C-156.54329721 326.31409013 -160.7072618 326.04475982 -166 327 C-168.86862116 328.30727164 -171.48521779 329.84128 -174.18359375 331.46875 C-181.70157026 335.55619354 -191.47341728 337.1944172 -200 337 C-208.1283864 334.49895803 -213.19450804 327.30957607 -217.0546875 320.11328125 C-220.21896683 313.03941713 -219.5176423 306.81038465 -216.9375 299.6875 C-211.20712892 285.78693597 -202.06920854 272.31058528 -188 266 C-171.06143736 259.35312119 -152.68619077 255.38565223 -135 262 C-124.23091711 266.72789005 -116.17942194 274.78336715 -108 283 C-107.50161621 283.49580566 -107.00323242 283.99161133 -106.48974609 284.50244141 C-91.48801771 299.58883563 -80.85986111 319.72840472 -80.625 341.25 C-80.98435214 374.56868083 -96.27031681 404.47110151 -119 428 C-119.88558594 428.94875 -120.77117187 429.8975 -121.68359375 430.875 C-147.34045735 457.68623627 -188.55210719 472.41201816 -225.1875 473.3125 C-240.70705086 473.17827686 -256.49723751 469.39741985 -271 464 C-271.64066406 463.76474609 -272.28132813 463.52949219 -272.94140625 463.28710938 C-284.72453229 458.84793962 -294.7991844 452.30301002 -305 445 C-305.7125293 444.49243164 -306.42505859 443.98486328 -307.15917969 443.46191406 C-339.57641664 420.20834871 -359.98918875 389.70359623 -366.875 349.9375 C-373.63180554 305.56451889 -359.75102724 258.45963469 -333.8125 222.1875 C-329.57320348 216.46127356 -324.94232345 211.12685825 -320 206 C-319.54367187 205.52320801 -319.08734375 205.04641602 -318.6171875 204.55517578 C-311.81850634 197.48154796 -304.74652288 191.04164852 -297 185 C-295.97003906 184.17628906 -294.94007813 183.35257813 -293.87890625 182.50390625 C-226.86289231 129.29903631 -128.45674374 114.81284559 -45.3984375 124.0859375 C-21.41775898 126.95865526 1.75372529 131.40199126 24 141 C24.69657715 141.29745117 25.3931543 141.59490234 26.11083984 141.90136719 C54.22593563 154.06244439 79.35364289 172.56070312 102 193 C103.16015625 194.04027344 103.16015625 194.04027344 104.34375 195.1015625 C106.03729762 196.62261916 107.72869194 198.14607659 109.41796875 199.671875 C111.14507623 201.22914589 112.8768935 202.78120856 114.61328125 204.328125 C122.32769162 211.21139252 129.21196377 218.13323439 135.6953125 226.19921875 C137.80407064 228.76189602 139.99041451 231.19573868 142.25 233.625 C148.09440611 240.05078682 153.26854276 246.98244184 158.45703125 253.93945312 C159.81096511 255.74755467 161.18318518 257.53939451 162.5625 259.328125 C183.62545286 287.45825284 198.20953229 322.080816 210 355 C210.2578125 355.69931641 210.515625 356.39863281 210.78125 357.11914062 C227.80755703 403.31267248 232.54363494 452.63158273 224 501 C223.78569336 502.22831543 223.57138672 503.45663086 223.35058594 504.72216797 C213.08061626 562.01424771 183.24084943 614.75497423 146 659 C145.01931445 660.17560043 144.03884037 661.3513773 143.05859375 662.52734375 C138.17124584 668.36661966 133.17473704 674.09684773 128.05078125 679.73046875 C126.14771912 681.83652418 124.28846179 683.97320469 122.4375 686.125 C119.41320615 689.60433806 116.18913389 692.83248742 112.90234375 696.0625 C111.16449527 697.83246478 109.57601713 699.64906999 108 701.5625 C105.33070008 704.73989723 102.39618419 707.39381284 99.234375 710.07421875 C96.77732151 712.19192394 94.42842067 714.40605319 92.0625 716.625 C57.30763542 748.22033144 14.67570872 768.07347207 -29 784 C-29.92925293 784.34289062 -30.85850586 784.68578125 -31.81591797 785.0390625 C-100.91867655 810.34871382 -176.169542 809.9266306 -247 793 C-248.04317383 792.75491699 -249.08634766 792.50983398 -250.16113281 792.25732422 C-264.66711038 788.83782935 -278.90453273 784.84710944 -293 780 C-293.83499023 779.71463379 -294.66998047 779.42926758 -295.53027344 779.13525391 C-329.14624075 767.4624944 -363.80643619 750.07730778 -391 727 C-391.93457031 726.24847656 -392.86914062 725.49695313 -393.83203125 724.72265625 C-402.31285068 717.80274001 -410.06330009 710.15237438 -417.8125 702.4375 C-418.34811554 701.90706085 -418.88373108 701.3766217 -419.43557739 700.83010864 C-426.42751475 693.89144982 -432.90939165 686.7599925 -439 679 C-439.56775146 678.29157959 -440.13550293 677.58315918 -440.72045898 676.85327148 C-458.50566354 654.58948151 -471.57652677 630.05619071 -483.3125 604.1875 C-483.5972821 603.56194214 -483.88206421 602.93638428 -484.17547607 602.29187012 C-491.56587881 585.99964716 -497.77660352 569.38066125 -503.125 552.3125 C-503.38490723 551.48683533 -503.64481445 550.66117065 -503.91259766 549.81048584 C-508.03487428 536.66360315 -511.56430831 523.57245476 -514 510 C-514.34503736 508.20442425 -514.69008975 506.4088514 -515.03515625 504.61328125 C-519.67415366 479.53254065 -522.45303435 453.50620257 -523 428 C-523.03996094 426.77152344 -523.07992187 425.54304688 -523.12109375 424.27734375 C-523.94594734 378.13406357 -514.84130649 328.79738095 -493.76171875 287.5234375 C-491.90893682 283.81787365 -490.13557776 280.08075037 -488.36914062 276.33349609 C-482.87322852 264.67830132 -477.11585675 253.31969489 -470.38671875 242.31640625 C-469.08243454 240.13770051 -467.87946298 237.92904129 -466.6875 235.6875 C-456.58125889 217.35374209 -442.05425156 202.02705166 -427.4375 187.25 C-426.73431641 186.53376465 -426.03113281 185.8175293 -425.30664062 185.07958984 C-424.64728516 184.41910645 -423.98792969 183.75862305 -423.30859375 183.078125 C-422.71876709 182.48418945 -422.12894043 181.89025391 -421.52124023 181.27832031 C-420 180 -420 180 -418 180 C-418 179.34 -418 178.68 -418 178 C-416.4609375 176.51953125 -416.4609375 176.51953125 -414.375 174.8125 C-410.91212733 171.8899337 -408.02489092 168.84169098 -405.2265625 165.28515625 C-404.82179688 164.86105469 -404.41703125 164.43695313 -404 164 C-403.34 164 -402.68 164 -402 164 C-401.67 163.01 -401.34 162.02 -401 161 C-400.34 161 -399.68 161 -399 161 C-399 160.34 -399 159.68 -399 159 C-397.50390625 157.5625 -397.50390625 157.5625 -395.5625 156 C-392.84811762 153.85474956 -392.84811762 153.85474956 -391 151 C-390.34 151 -389.68 151 -389 151 C-388.67 150.01 -388.34 149.02 -388 148 C-386.4089357 146.56197818 -384.7513985 145.19674665 -383.0625 143.875 C-379.14826937 140.75886575 -375.37052763 137.57387039 -371.6875 134.1875 C-368.27838756 131.08830687 -364.90092877 128.46793453 -361 126 C-359.38958158 124.84197827 -357.78635567 123.67393457 -356.1875 122.5 C-350.48676222 118.32834594 -344.71582598 114.26058749 -338.92651367 110.21289062 C-335.91713758 108.10036233 -333.00257114 106.00215092 -330.1796875 103.640625 C-328 102 -328 102 -325 102 C-325 101.34 -325 100.68 -325 100 C-323.2163382 98.68009027 -321.37010988 97.44427809 -319.5 96.25 C-315.19426524 93.45709097 -311.03307112 90.60896079 -307.01171875 87.421875 C-304.74714791 85.82128512 -302.37235496 84.47732992 -299.95629883 83.12011719 C-297.17700648 81.52877895 -294.46660794 79.83231877 -291.74609375 78.14306641 C-283.0069311 72.72288574 -274.14870404 67.69219247 -265 63 C-263.59621094 62.27683594 -263.59621094 62.27683594 -262.1640625 61.5390625 C-247.31439394 54 -247.31439394 54 -244 54 C-244 53.34 -244 52.68 -244 52 C-237.16718273 49.41108934 -230.33210954 46.82822238 -223.49444866 44.25212955 C-220.31614118 43.05450611 -217.13875458 41.85457595 -213.96264648 40.65112305 C-189.70650793 31.46282638 -165.51425354 22.5634642 -140.1875 16.8125 C-138.37685814 16.3929064 -136.56631307 15.97289498 -134.75585938 15.55249023 C-129.50970079 14.34188545 -124.25671874 13.16380647 -119 12 C-117.88289642 11.75189575 -117.88289642 11.75189575 -116.7432251 11.4987793 C-98.91712087 7.55403724 -81.17974488 4.66685581 -63 3 C-61.56263571 2.86356597 -60.12529981 2.72683249 -58.68798828 2.58984375 C-39.1067324 0.74077329 -19.68359892 -0.67234245 0 0 Z " fill="#FEFEFE" transform="translate(733,213)"/>
<path d="M0 0 C2.82771155 0.95536099 5.66142061 1.8889721 8.49853516 2.81591797 C22.10961335 7.33540572 35.13732296 13.09968682 48.16650391 19.06982422 C49.56980957 19.71056885 49.56980957 19.71056885 51.00146484 20.36425781 C82.41998179 34.78744414 112.46512576 52.54046926 138.66210938 75.23193359 C143.06718413 79.04126904 147.67263476 82.51761511 152.35791016 85.97216797 C154.89100917 87.86406529 157.34575239 89.81723452 159.79150391 91.81982422 C164.36218365 95.52339751 169.12359947 98.91414251 173.91650391 102.31982422 C180.27866656 106.85427041 186.31534482 111.59500124 192.18017578 116.75366211 C195.97910479 120.08767562 199.87947749 123.21680902 203.91650391 126.25732422 C208.77432433 129.92213606 213.32104157 133.82124613 217.79541016 137.94482422 C220.05909461 139.97356284 222.38616381 141.83778961 224.79150391 143.69482422 C231.67414001 149.11652342 237.90768522 155.25297483 244.25927734 161.27587891 C246.86205912 163.72406637 249.51303951 166.11414516 252.16650391 168.50732422 C257.84859388 173.68278066 263.26353531 179.10663467 268.64892578 184.58911133 C271.31897127 187.29423624 273.92098374 189.87418082 276.89697266 192.24560547 C279.36821835 194.23195958 281.10359769 196.31377683 283.04150391 198.81982422 C287.63972566 204.56760141 292.60044886 209.90485394 297.67382812 215.23486328 C301.4006056 219.15602126 305.0185446 223.14629914 308.56347656 227.23266602 C310.67882398 229.65697143 312.85834795 232.01907627 315.04150391 234.38232422 C319.1321095 238.86779974 323.01468234 243.47562966 326.82666016 248.19873047 C328.90435805 250.74815944 331.01738774 253.25842878 333.15380859 255.75830078 C341.54441813 265.57785297 349.55630926 275.67140817 357.07666016 286.17529297 C358.6263506 288.32168664 360.19410378 290.44473206 361.78759766 292.55810547 C367.7627574 300.51348438 373.2069745 308.60031881 378.11669922 317.25634766 C379.10969332 318.97168724 380.16386241 320.65118733 381.22119141 322.32763672 C391.92478939 340.27802867 397.20030299 364.33020926 398.16650391 385.06982422 C398.20050293 385.77413574 398.23450195 386.47844727 398.26953125 387.20410156 C398.71696917 397.97213809 398.04756802 408.34837405 396.44384766 419.00341797 C396.26581604 420.21440659 396.08778442 421.4253952 395.90435791 422.67308044 C393.91767707 436.02214847 391.71212265 449.33329228 389.41650391 462.63232422 C389.09169037 464.51963257 389.09169037 464.51963257 388.76031494 466.44506836 C385.46988737 485.47701936 381.75386308 504.31520358 377.14306641 523.06884766 C376.0987166 527.32494157 375.09870471 531.59095541 374.10400391 535.85888672 C373.75522889 537.35368318 373.40643343 538.84847487 373.05761719 540.34326172 C372.88715881 541.07383789 372.71670044 541.80441406 372.54107666 542.55712891 C371.28117348 547.94831389 370.00572023 553.33579078 368.72442627 558.72192383 C368.33512531 560.36021604 367.94681616 561.99874412 367.55926514 563.63745117 C362.91833564 583.24848751 357.99599363 602.78622992 353.04150391 622.31982422 C352.83415241 623.1377948 352.62680092 623.95576538 352.41316605 624.79852295 C347.06095637 645.9109433 341.68259635 667.01587454 336.10400391 688.06982422 C335.85865906 689.00266235 335.61331421 689.93550049 335.36053467 690.89660645 C334.68609831 693.45602659 334.0040457 696.01326729 333.31884766 698.56982422 C333.03111229 699.66577911 333.03111229 699.66577911 332.73756409 700.78387451 C331.86721661 703.99143296 331.03088659 706.2732502 329.16650391 709.06982422 C329.14588898 708.22109741 329.12527405 707.37237061 329.10403442 706.4979248 C328.90563818 698.38189956 328.70033187 690.26608201 328.48782539 682.15041351 C328.37888064 677.98105305 328.27233666 673.81166402 328.171875 669.64208984 C327.71419383 650.72631381 327.13086944 631.90260773 325.16650391 613.06982422 C325.03759766 611.79703613 324.90869141 610.52424805 324.77587891 609.21289062 C322.12181743 584.90896477 317.29796921 560.88355641 312.70422363 536.89038086 C312.20781182 534.28650087 311.71820231 531.68147392 311.23193359 529.07568359 C301.62201829 477.71657337 282.64925279 428.40635011 263.16650391 380.06982422 C262.69245117 378.88888184 262.21839844 377.70793945 261.72998047 376.49121094 C256.98372834 364.71705015 251.98494024 353.1800271 246.12109375 341.91894531 C244.82508458 339.40846617 243.57562423 336.87594471 242.32470703 334.34277344 C240.99063629 331.64846055 239.63800083 328.96371978 238.28222656 326.28027344 C237.5082405 324.74686647 236.73729147 323.21192426 235.96875 321.67578125 C228.8797187 307.55544244 220.85300283 294.26082213 212.16650391 281.06982422 C211.26934691 279.6961404 210.37220958 278.32244373 209.47509766 276.94873047 C197.64785816 258.94273362 184.98754589 241.60087443 171.16650391 225.06982422 C170.51391602 224.28768555 170.51391602 224.28768555 169.84814453 223.48974609 C163.88662339 216.36787246 157.74511102 209.43039143 151.41650391 202.63232422 C150.81499512 201.98239502 150.21348633 201.33246582 149.59375 200.6628418 C145.36044307 196.15707141 140.87086922 192.0764781 136.16650391 188.06982422 C135.04849589 187.09680787 133.93126565 186.12289687 132.81494141 185.14794922 C125.28352481 178.62556973 117.58010164 172.38051354 109.70947266 166.2734375 C107.59406033 164.623282 105.5048296 162.94157319 103.41650391 161.25732422 C101.66797815 159.85964458 99.91774059 158.46410568 98.16650391 157.06982422 C97.54855957 156.57643555 96.93061523 156.08304688 96.29394531 155.57470703 C87.18093636 148.31944055 77.93139816 141.40490586 68.27197266 134.89306641 C62.85007586 131.23638682 57.51627858 127.4808926 52.22900391 123.63232422 C31.53719363 108.61378271 10.46260522 94.30183691 -11.61181641 81.37646484 C-13.25535645 80.40984657 -14.8947055 79.43609439 -16.53173828 78.45849609 C-30.18565928 70.309972 -43.93807593 62.90913425 -58.30371094 56.12524414 C-65.53429025 52.7044443 -72.60495894 49.10431147 -79.58349609 45.19482422 C-128.34410757 18.1364651 -181.07625051 0.3591684 -234.83349609 -13.93017578 C-234.83349609 -14.26017578 -234.83349609 -14.59017578 -234.83349609 -14.93017578 C-223.24399937 -17.10247989 -211.53224347 -17.8614844 -199.78955078 -18.73510742 C-196.36881353 -18.99004369 -192.94880665 -19.25341784 -189.52880859 -19.51806641 C-124.67340562 -24.47387282 -61.95458879 -20.96140683 0 0 Z " fill="#FEFEFE" transform="translate(1096.83349609375,198.93017578125)"/>
<path d="M0 0 C0.33 0 0.66 0 1 0 C0.51171875 6.0546875 0.51171875 6.0546875 0 8 C-0.99 8.66 -1.98 9.32 -3 10 C-2.49287967 6.28111761 -1.88391785 3.26545761 0 0 Z " fill="#FFFFFF" transform="translate(1430,1015)"/>
<path d="" fill="#FFFFFF" transform="translate(0,0)"/>
</svg>
