<svg width="682" height="640" viewBox="0 0 682 640" fill="none" xmlns="http://www.w3.org/2000/svg">
<path d="M311.523 0C339.518 0 365.072 2.27865 388.184 6.83594C411.621 11.0677 433.105 16.9271 452.637 24.4141C472.493 31.901 490.723 40.8529 507.324 51.2695C523.926 61.3607 539.551 72.2656 554.199 83.9844V17.0898H664.062V192.871H554.199C544.434 176.595 531.738 161.458 516.113 147.461C500.488 133.464 482.422 121.419 461.914 111.328C441.732 100.911 419.596 92.7734 395.508 86.9141C371.419 81.0547 346.191 78.125 319.824 78.125C292.155 78.125 267.741 80.7292 246.582 85.9375C225.749 90.8203 208.171 97.3307 193.848 105.469C179.85 113.281 169.271 122.07 162.109 131.836C154.948 141.602 151.367 151.204 151.367 160.645C151.367 172.689 154.46 184.245 160.645 195.312C167.155 206.055 178.385 216.146 194.336 225.586C210.612 234.701 232.585 243.001 260.254 250.488C287.923 257.65 323.079 263.835 365.723 269.043C425.618 276.53 475.749 285.97 516.113 297.363C556.478 308.757 588.867 322.591 613.281 338.867C637.695 354.818 655.111 373.535 665.527 395.02C675.944 416.178 681.152 440.104 681.152 466.797C681.152 486.979 675.618 507.324 664.551 527.832C653.809 548.34 637.207 566.895 614.746 583.496C592.611 600.098 564.453 613.607 530.273 624.023C496.094 634.44 455.892 639.648 409.668 639.648C380.697 639.648 352.865 637.695 326.172 633.789C299.805 630.208 274.251 624.837 249.512 617.676C225.098 610.189 201.335 601.074 178.223 590.332C155.111 579.59 132.324 567.057 109.863 552.734V625H0V449.219H100.098C143.392 488.281 189.616 516.927 238.77 535.156C287.923 553.06 339.355 562.012 393.066 562.012C416.504 562.012 437.988 559.733 457.52 555.176C477.051 550.618 493.978 544.434 508.301 536.621C522.624 528.483 533.691 519.043 541.504 508.301C549.642 497.559 553.711 486.003 553.711 473.633C553.711 459.31 549.154 446.126 540.039 434.082C530.924 422.038 516.276 411.133 496.094 401.367C476.237 391.602 450.521 383.138 418.945 375.977C387.695 368.815 349.935 362.956 305.664 358.398C254.232 353.19 210.449 344.727 174.316 333.008C138.184 320.964 108.561 306.478 85.4492 289.551C62.6628 272.624 45.8984 253.743 35.1562 232.91C24.7396 212.077 19.5312 190.104 19.5312 166.992C19.5312 145.508 25.7161 124.837 38.0859 104.98C50.4557 84.7982 68.8477 67.0573 93.2617 51.7578C117.676 36.1328 148.112 23.6003 184.57 14.1602C221.029 4.72005 263.346 0 311.523 0Z" fill="white"/>
<path d="M311.523 0C339.518 0 365.072 2.27865 388.184 6.83594C411.621 11.0677 433.105 16.9271 452.637 24.4141C472.493 31.901 490.723 40.8529 507.324 51.2695C523.926 61.3607 539.551 72.2656 554.199 83.9844V17.0898H664.062V192.871H554.199C544.434 176.595 531.738 161.458 516.113 147.461C500.488 133.464 482.422 121.419 461.914 111.328C441.732 100.911 419.596 92.7734 395.508 86.9141C371.419 81.0547 346.191 78.125 319.824 78.125C292.155 78.125 267.741 80.7292 246.582 85.9375C225.749 90.8203 208.171 97.3307 193.848 105.469C179.85 113.281 169.271 122.07 162.109 131.836C154.948 141.602 151.367 151.204 151.367 160.645C151.367 172.689 154.46 184.245 160.645 195.312C167.155 206.055 178.385 216.146 194.336 225.586C210.612 234.701 232.585 243.001 260.254 250.488C287.923 257.65 323.079 263.835 365.723 269.043C425.618 276.53 475.749 285.97 516.113 297.363C556.478 308.757 588.867 322.591 613.281 338.867C637.695 354.818 655.111 373.535 665.527 395.02C675.944 416.178 681.152 440.104 681.152 466.797C681.152 486.979 675.618 507.324 664.551 527.832C653.809 548.34 637.207 566.895 614.746 583.496C592.611 600.098 564.453 613.607 530.273 624.023C496.094 634.44 455.892 639.648 409.668 639.648C380.697 639.648 352.865 637.695 326.172 633.789C299.805 630.208 274.251 624.837 249.512 617.676C225.098 610.189 201.335 601.074 178.223 590.332C155.111 579.59 132.324 567.057 109.863 552.734V625H0V449.219H100.098C143.392 488.281 189.616 516.927 238.77 535.156C287.923 553.06 339.355 562.012 393.066 562.012C416.504 562.012 437.988 559.733 457.52 555.176C477.051 550.618 493.978 544.434 508.301 536.621C522.624 528.483 533.691 519.043 541.504 508.301C549.642 497.559 553.711 486.003 553.711 473.633C553.711 459.31 549.154 446.126 540.039 434.082C530.924 422.038 516.276 411.133 496.094 401.367C476.237 391.602 450.521 383.138 418.945 375.977C387.695 368.815 349.935 362.956 305.664 358.398C254.232 353.19 210.449 344.727 174.316 333.008C138.184 320.964 108.561 306.478 85.4492 289.551C62.6628 272.624 45.8984 253.743 35.1562 232.91C24.7396 212.077 19.5312 190.104 19.5312 166.992C19.5312 145.508 25.7161 124.837 38.0859 104.98C50.4557 84.7982 68.8477 67.0573 93.2617 51.7578C117.676 36.1328 148.112 23.6003 184.57 14.1602C221.029 4.72005 263.346 0 311.523 0Z" stroke="black"/>
</svg>
